<svg id="Capa_1" data-name="Capa 1" xmlns="http://www.w3.org/2000/svg" viewBox="0 0 27.23 24.18"><defs><style>.cls-1{fill:#fff;fill-rule:evenodd;}</style></defs><g id="Layer_1" data-name="Layer 1"><path id="Trazado_91" data-name="Trazado 91" class="cls-1" d="M5.59,11.75a8,8,0,0,0,2.32,3.11,9.11,9.11,0,0,0,3.86,1.59A7.3,7.3,0,0,1,15.45,18,6.42,6.42,0,0,1,17,20.19l-3.7,3.7a1,1,0,0,1-.71.29H4.8a1,1,0,0,1-.71-.29l-3.2-3.2a3,3,0,0,1,0-4.24h0Zm1.53-1.53L16.45.89a3,3,0,0,1,4.24,0h0l5.66,5.66a3,3,0,0,1,0,4.24h0l-7.9,7.9a8,8,0,0,0-1.64-2.19,9.22,9.22,0,0,0-4.6-2,7.19,7.19,0,0,1-3.07-1.22,6.59,6.59,0,0,1-2-3.06Z"/></g></svg>