<svg id="Capa_1" data-name="Capa 1" xmlns="http://www.w3.org/2000/svg" viewBox="0 0 80 80"><defs><style>.cls-1{fill:#54a583;}.cls-2{fill:none;}.cls-3{fill:#fff;}</style></defs><path id="Trazado_122" data-name="Trazado 122" class="cls-1" d="M0,67.06H0A12.94,12.94,0,0,0,12.94,80H67.06A12.94,12.94,0,0,0,80,67.06h0V12.94A12.94,12.94,0,0,0,67.06,0h0A67.06,67.06,0,0,0,0,67.06Z"/><g id="Grupo_61" data-name="Grupo 61"><rect id="Rectángulo_140" data-name="Rectángulo 140" class="cls-2" x="22" y="18" width="48" height="48"/><path id="Trazado_123" data-name="Trazado 123" class="cls-3" d="M37.49,61.91a10.46,10.46,0,0,1-7.43-3.08l-.9-.89a10.5,10.5,0,0,1,0-14.85L49,23.27a3.08,3.08,0,0,1,4.24,0l11.5,11.5a3,3,0,0,1,0,4.25L44.91,58.83A10.44,10.44,0,0,1,37.49,61.91ZM51.11,25.39,31.29,45.21a7.5,7.5,0,0,0,0,10.61l.89.89a7.5,7.5,0,0,0,10.61,0h0L62.61,36.89Z"/><rect id="Rectángulo_141" data-name="Rectángulo 141" class="cls-3" x="42.8" y="40.49" width="3" height="6.42" transform="translate(-17.93 44.13) rotate(-45.01)"/><rect id="Rectángulo_142" data-name="Rectángulo 142" class="cls-3" x="42.8" y="38.89" width="3" height="9.63" transform="translate(-17.93 44.12) rotate(-45)"/><rect id="Rectángulo_143" data-name="Rectángulo 143" class="cls-3" x="41.09" y="42.2" width="6.42" height="3" transform="translate(-17.93 44.12) rotate(-45)"/><rect id="Rectángulo_144" data-name="Rectángulo 144" class="cls-3" x="39.48" y="42.2" width="9.63" height="3" transform="translate(-17.93 44.12) rotate(-45)"/><path id="Trazado_124" data-name="Trazado 124" class="cls-3" d="M59.05,30.44A1.49,1.49,0,0,1,57.55,29,1.54,1.54,0,0,1,58,27.88l3.41-3.4a1.5,1.5,0,0,1,2.12,2.12L60.11,30A1.5,1.5,0,0,1,59.05,30.44Z"/><path id="Trazado_125" data-name="Trazado 125" class="cls-3" d="M67,31.58a1.5,1.5,0,0,1-1.06-.44l-9.08-9.08A1.5,1.5,0,0,1,59,19.94L68.06,29A1.5,1.5,0,0,1,67,31.58ZM25,64.5a1.5,1.5,0,0,1-1.06-2.56l5.68-5.68a1.5,1.5,0,0,1,2.12,2.12l-5.68,5.68A1.5,1.5,0,0,1,25,64.5Z"/></g></svg>