<svg id="Capa_1" data-name="Capa 1" xmlns="http://www.w3.org/2000/svg" viewBox="0 0 14.02 18.16"><defs><style>.cls-1{fill:#0b55b8;}</style></defs><path id="Trazado_133" data-name="Trazado 133" class="cls-1" d="M7.05,15.79a4.89,4.89,0,0,0,2.29-1.46c1.9-1.75,4.12-4.82,4.12-7.72A6.45,6.45,0,0,0,.56,6.29v.32C.56,11.16,5.86,15.69,7.05,15.79Zm0-13A3.08,3.08,0,1,1,3.94,5.85h0A3.07,3.07,0,0,1,7,2.77Zm7,13.62c0,.6-2.47,1.77-7,1.77S0,17,0,16.39c0-.4,1.16-1.14,3.74-1.53l.13,0A6.64,6.64,0,0,0,7,16.75h.09c1,0,2.38-1.19,2.94-1.71.07-.06.14-.14.21-.21l.08,0C12.87,15.25,14,16,14,16.39Z"/></svg>