<?xml version="1.0" encoding="utf-8"?>
<!-- Generator: Adobe Illustrator 24.2.1, SVG Export Plug-In . SVG Version: 6.00 Build 0)  -->
<svg version="1.1" xmlns="http://www.w3.org/2000/svg" xmlns:xlink="http://www.w3.org/1999/xlink" x="0px" y="0px"
	 viewBox="0 0 19.19 19.2" style="enable-background:new 0 0 19.19 19.2;" xml:space="preserve">
<style type="text/css">
	.st0{fill:#54A583;}
	.st1{fill:#2756B1;}
	.st2{fill:#2455B1;}
	.st3{fill:#FFFFFF;}
	.st4{fill:#6EDE9E;}
	.st5{fill:#50A583;}
	.st6{fill-rule:evenodd;clip-rule:evenodd;fill:#FFFFFF;}
	.st7{fill:#6A7379;}
</style>
<g id="Capa_2">
</g>
<g id="Layer_1">
	<path id="Layer_2" class="st0" d="M-94.04-49.1l2.22,2.21l-3.57,3.57l-2.57-2.57l-2.21-2.22l-2.43,2.43l2.22,2.21l-14.69,14.69
		v5.13l-6.35,6.33l2.43,2.43l6.33-6.35h5.13l14.69-14.69l2.21,2.22l2.43-2.43l-2.22-2.21l-2.57-2.57l3.57-3.58l2.21,2.22l2.43-2.43
		l-6.84-6.84L-94.04-49.1z"/>
	<path id="Trazado_62" class="st1" d="M-47.53-42.32v5.98c0,0.44-0.36,0.8-0.8,0.8h-4.79v-4.79h-3.19v4.79h-4.79
		c-0.44,0-0.8-0.36-0.8-0.8v-5.99c0-0.01,0-0.02,0.01-0.04c0-0.01,0.01-0.02,0.01-0.04l7.17-5.91l7.17,5.91
		C-47.54-42.37-47.53-42.34-47.53-42.32z M-44.75-43.18l-0.77,0.92c-0.07,0.08-0.16,0.12-0.26,0.14h-0.04
		c-0.1,0-0.19-0.03-0.26-0.09l-8.63-7.2l-8.63,7.2c-0.09,0.06-0.19,0.09-0.3,0.09c-0.1-0.01-0.19-0.06-0.26-0.14l-0.77-0.92
		c-0.07-0.08-0.1-0.19-0.09-0.29c0-0.1,0.05-0.2,0.14-0.27l8.97-7.47c0.56-0.43,1.34-0.43,1.9,0l3.04,2.54v-2.43
		c-0.01-0.21,0.16-0.39,0.37-0.4c0.01,0,0.02,0,0.03,0h2.39c0.21-0.01,0.39,0.16,0.4,0.37c0,0.01,0,0.02,0,0.03v5.09l2.73,2.27
		c0.08,0.07,0.13,0.16,0.14,0.27C-44.65-43.36-44.68-43.26-44.75-43.18z"/>
	<g id="Grupo_13" transform="translate(-867.689 -8.097)">
		<path id="Trazado_63" class="st2" d="M854.84-37.86c1.16,0,2.1-0.93,2.1-2.09s-0.93-2.1-2.09-2.1s-2.1,0.93-2.1,2.09c0,0,0,0,0,0
			C852.75-38.79,853.69-37.86,854.84-37.86z"/>
		<path id="Trazado_64" class="st2" d="M842.81-32.96h-2.76c-0.24-0.01-0.47-0.14-0.59-0.35l-1.12-1.81
			c-0.5-0.83-1.4-1.33-2.37-1.33h-2.24c-1.54,0-2.79,1.25-2.79,2.79v6.97c0,0.39,0.31,0.7,0.7,0.7l0,0h4.89c0.39,0,0.7-0.31,0.7-0.7
			v0v-3.25l-2.06-3.35c-0.01-0.01-0.02-0.03-0.03-0.05c-0.19-0.32-0.08-0.74,0.24-0.93c0.34-0.18,0.76-0.07,0.98,0.24l1.95,3.14h4.5
			c0.57,0,1.04-0.46,1.05-1.04c0-0.01,0-0.03,0-0.04C843.85-32.52,843.39-32.97,842.81-32.96
			C842.82-32.96,842.81-32.96,842.81-32.96z"/>
		<path id="Trazado_65" class="st2" d="M855.37-36.46h-2.26c-0.97-0.01-1.87,0.49-2.38,1.32l-1.12,1.81
			c-0.12,0.21-0.35,0.34-0.59,0.35h-2.76c-0.57,0.01-1.02,0.48-1.01,1.05c0,0,0,0,0,0c0,0.58,0.47,1.05,1.05,1.05h4.5l1.95-3.14
			l0.01-0.01c0.2-0.34,0.63-0.46,0.97-0.27c0.32,0.22,0.41,0.65,0.21,0.98l-2.06,3.35v3.28c0,0.39,0.31,0.7,0.7,0.7l0,0h4.89
			c0.39,0,0.7-0.31,0.7-0.7v0v-6.97C858.17-35.21,856.92-36.46,855.37-36.46z"/>
		<path id="Trazado_66" class="st2" d="M834.27-37.86c1.16,0,2.09-0.94,2.09-2.09c0-1.16-0.94-2.09-2.09-2.09
			c-1.16,0-2.09,0.94-2.09,2.09c0,0,0,0,0,0C832.17-38.79,833.11-37.86,834.27-37.86z"/>
		<path id="Trazado_67" class="st3" d="M857.23-37.4c1.41-1.31,1.48-3.52,0.17-4.93c-1.31-1.41-3.52-1.48-4.93-0.17
			c-0.71,0.66-1.11,1.58-1.11,2.55c-0.01,0.81,0.27,1.59,0.8,2.2c-1.08,0.25-2.02,0.93-2.58,1.88l-0.94,1.5h-2.34
			c-0.94,0.96-2.49,0.98-3.45,0.03c-0.01-0.01-0.02-0.02-0.03-0.03h-2.34l-0.94-1.5c-0.59-0.94-1.51-1.61-2.58-1.88
			c1.22-1.49,1-3.68-0.49-4.9c-1.49-1.22-3.68-1-4.9,0.49c-0.51,0.62-0.79,1.41-0.79,2.21c-0.01,0.97,0.4,1.9,1.12,2.55
			c-1.44,0.69-2.34,2.14-2.34,3.74v6.98c0.01,1.15,0.94,2.09,2.09,2.09h4.88c1.15-0.01,2.09-0.94,2.09-2.09v-2.79h4.19
			c0.94-0.96,2.49-0.98,3.45-0.03c0.01,0.01,0.02,0.02,0.03,0.03h4.19v2.79c0,1.16,0.94,2.09,2.1,2.09h4.88
			c1.15,0,2.09-0.94,2.09-2.09v-6.97C859.57-35.26,858.66-36.71,857.23-37.4z M834.27-42.04c1.16,0,2.09,0.94,2.09,2.09
			c0,1.16-0.94,2.09-2.09,2.09s-2.09-0.94-2.09-2.09c0,0,0,0,0,0C832.17-41.11,833.11-42.04,834.27-42.04z M843.86-31.91
			c-0.01,0.57-0.47,1.04-1.05,1.04h-4.5l-1.95-3.14c-0.22-0.32-0.64-0.42-0.98-0.24c-0.32,0.19-0.43,0.61-0.24,0.93c0,0,0,0,0,0
			c0.01,0.02,0.02,0.03,0.03,0.05l2.06,3.35v3.24c0,0.39-0.31,0.7-0.7,0.7l0,0h-4.88c-0.39,0-0.7-0.31-0.7-0.7c0,0,0,0,0,0v-6.98
			c0-1.54,1.25-2.79,2.79-2.79h2.24c0.97,0,1.87,0.5,2.37,1.33l1.12,1.81c0.12,0.21,0.35,0.34,0.59,0.35h2.76
			c0.57-0.01,1.04,0.44,1.05,1.01c0,0,0,0,0,0C843.86-31.94,843.86-31.93,843.86-31.91L843.86-31.91z M854.85-42.04
			c1.16,0,2.09,0.94,2.09,2.1s-0.94,2.09-2.1,2.09c-1.15,0-2.09-0.94-2.09-2.09C852.75-41.1,853.69-42.04,854.85-42.04
			C854.84-42.04,854.85-42.04,854.85-42.04L854.85-42.04z M858.17-26.69c0,0.39-0.31,0.7-0.7,0.7l0,0h-4.89
			c-0.39,0-0.7-0.31-0.7-0.7c0,0,0,0,0,0v-3.28l2.06-3.35c0.2-0.33,0.11-0.76-0.21-0.98c-0.34-0.19-0.78-0.08-0.97,0.27l-0.01,0.01
			l-1.95,3.14h-4.5c-0.58,0-1.05-0.47-1.05-1.05c-0.01-0.57,0.44-1.04,1.01-1.05c0,0,0,0,0,0h2.76c0.24-0.01,0.47-0.14,0.59-0.35
			l1.12-1.81c0.51-0.83,1.41-1.33,2.38-1.32h2.27c1.55,0,2.8,1.25,2.8,2.8L858.17-26.69z"/>
	</g>
	<g id="Grupo_14" transform="translate(-875.74 -228.825)">
		<path id="Trazado_68" class="st1" d="M876.95,195.09h4.78v-3.5h2.31v3.5h4.78V178.5h-11.87V195.09z M887.57,190.3h-2.27v-2.27
			h2.26L887.57,190.3z M885.32,180.87c0.69,0,1.37-0.01,2.04,0.01c0.12,0.03,0.21,0.13,0.24,0.24c0.02,0.67,0.01,1.35,0.01,2.05
			h-2.29V180.87z M885.3,184.48h2.27v2.26h-2.27L885.3,184.48z M884,186.74h-2.25v-2.26H884L884,186.74z M881.75,180.89h2.24v2.28
			h-2.24V180.89z M881.74,188.04H884v2.24h-2.25V188.04z M880.44,190.32c-0.69,0-1.35,0.01-2.01-0.01c-0.09,0-0.26-0.14-0.27-0.22
			c-0.02-0.68-0.01-1.37-0.01-2.07h2.29V190.32z M880.45,186.72h-2.28v-2.25h2.28V186.72z M878.15,181.1
			c0.03-0.11,0.11-0.19,0.22-0.22c0.68-0.02,1.37-0.01,2.08-0.01v2.31h-2.3C878.15,182.47,878.14,181.79,878.15,181.1L878.15,181.1z
			"/>
		<path id="Trazado_69" class="st3" d="M890.01,177.29h-14.27c0.01,0.11,0.02,0.22,0.02,0.34c0,6.11,0,12.22,0,18.33
			c0,0.11-0.01,0.22-0.02,0.34h14.27c-0.01-0.11-0.02-0.22-0.02-0.34c0-6.11,0-12.22,0-18.33C889.99,177.51,890,177.4,890.01,177.29
			z M888.82,195.09h-4.78v-3.5h-2.31v3.5h-4.78v-16.6h11.87V195.09z"/>
		<path id="Trazado_70" class="st3" d="M880.45,183.18v-2.31c-0.71,0-1.39-0.01-2.08,0.01c-0.11,0.03-0.19,0.12-0.22,0.22
			c-0.02,0.69-0.01,1.37-0.01,2.08L880.45,183.18z"/>
		<path id="Trazado_71" class="st3" d="M887.59,181.12c-0.03-0.12-0.12-0.21-0.24-0.24c-0.67-0.02-1.34-0.01-2.04-0.01v2.3h2.29
			C887.61,182.47,887.61,181.8,887.59,181.12z"/>
		<path id="Trazado_72" class="st3" d="M883.99,180.89h-2.24v2.28h2.24V180.89z"/>
		<path id="Trazado_73" class="st3" d="M878.17,186.72h2.28v-2.25h-2.28V186.72z"/>
		<path id="Trazado_74" class="st3" d="M887.57,184.48h-2.27v2.26h2.27V184.48z"/>
		<path id="Trazado_75" class="st3" d="M878.16,190.1c0,0.08,0.17,0.21,0.27,0.22c0.66,0.02,1.32,0.01,2.01,0.01v-2.29h-2.29
			C878.15,188.73,878.14,189.41,878.16,190.1z"/>
		<path id="Trazado_76" class="st3" d="M885.31,190.3h2.26v-2.27h-2.26L885.31,190.3z"/>
		<path id="Trazado_77" class="st3" d="M881.75,186.74H884v-2.26h-2.25V186.74z"/>
		<path id="Trazado_78" class="st3" d="M884,188.04h-2.25v2.24H884V188.04z"/>
	</g>
	<g id="Grupo_15" transform="translate(-1248.689 -262.381)">
		<path id="Trazado_79" class="st1" d="M1276.32,213.66h0.27c0.06,0,0.1-0.05,0.11-0.11v-1.67c0-0.06-0.05-0.11-0.11-0.11h-0.27
			c-0.06,0-0.11,0.05-0.11,0.11v1.67C1276.22,213.61,1276.27,213.66,1276.32,213.66z"/>
		<path id="Trazado_80" class="st1" d="M1272.86,213.66h0.27c0.06,0,0.1-0.05,0.11-0.11v-1.67c0-0.06-0.05-0.11-0.11-0.11h-0.27
			c-0.06,0-0.11,0.05-0.11,0.11v1.67C1272.76,213.61,1272.8,213.66,1272.86,213.66z"/>
		<path id="Trazado_81" class="st1" d="M1279.78,213.66h0.27c0.06,0,0.1-0.05,0.11-0.11v-1.67c0-0.06-0.05-0.11-0.11-0.11h-0.27
			c-0.06,0-0.11,0.05-0.11,0.11v1.67C1279.68,213.61,1279.73,213.66,1279.78,213.66z"/>
		<path id="Trazado_82" class="st1" d="M1285.73,214.69c0.02-0.72-0.48-1.36-1.19-1.52v0.38c0,0.57-0.46,1.03-1.03,1.03l0,0h-0.27
			c-0.56-0.02-1.01-0.47-1.03-1.03v-0.38h-1.13v0.38c0,0.57-0.46,1.03-1.03,1.03l0,0h-0.27c-0.56-0.02-1.01-0.47-1.03-1.03v-0.38
			h-1.13v0.38c-0.02,0.56-0.47,1.01-1.03,1.03h-0.27c-0.56-0.02-1.01-0.47-1.03-1.03v-0.38h-1.13v0.38
			c-0.02,0.56-0.47,1.01-1.03,1.03h-0.27c-0.57,0-1.03-0.46-1.03-1.03l0,0v-0.38c-0.71,0.16-1.2,0.79-1.19,1.52v0.54h15.09
			L1285.73,214.69z"/>
		<path id="Trazado_83" class="st1" d="M1283.25,213.66h0.27c0.11,0,0.11-0.05,0.11-0.11v-1.67c0-0.06,0-0.11-0.11-0.11h-0.27
			c-0.06,0-0.11,0.05-0.11,0.11v1.67C1283.14,213.61,1283.19,213.66,1283.25,213.66z"/>
		<path id="Trazado_84" class="st1" d="M1270.64,216.15v10.66c0,0.81,0.66,1.47,1.47,1.46h12.17c0.8,0,1.46-0.64,1.46-1.45v-0.01
			l-0.01-10.66L1270.64,216.15z M1275.24,225.83c-0.02,0.19-0.19,0.33-0.38,0.32h-2.33c-0.19,0.01-0.36-0.13-0.38-0.32v-2.38
			c0.02-0.19,0.19-0.33,0.38-0.32h2.33c0.19-0.01,0.36,0.13,0.38,0.32V225.83z M1279.73,225.83c-0.02,0.19-0.19,0.33-0.38,0.32
			h-2.33c-0.19,0.01-0.36-0.13-0.38-0.32v-2.38c0.02-0.19,0.19-0.33,0.38-0.32h2.32c0.19-0.01,0.36,0.13,0.38,0.32L1279.73,225.83z
			 M1279.73,221.07c-0.02,0.19-0.19,0.33-0.38,0.32h-2.33c-0.19,0.01-0.36-0.13-0.38-0.32v-2.38c0-0.22,0.16-0.32,0.38-0.32h2.33
			c0.22,0,0.38,0.11,0.38,0.32V221.07z M1284.22,225.83c-0.01,0.17-0.15,0.31-0.32,0.32h-2.38c-0.17-0.01-0.31-0.15-0.32-0.32v-2.38
			c0.01-0.17,0.15-0.31,0.32-0.32h2.38c0.17,0.01,0.31,0.15,0.32,0.32V225.83z M1284.22,218.69v2.38c-0.01,0.17-0.15,0.31-0.32,0.32
			h-2.38c-0.17-0.01-0.31-0.15-0.32-0.32v-2.38c-0.01-0.17,0.13-0.32,0.3-0.32c0,0,0,0,0,0h2.41c0.17-0.01,0.32,0.13,0.32,0.3
			c0,0,0,0,0,0C1284.22,218.67,1284.22,218.68,1284.22,218.69L1284.22,218.69z"/>
		<path id="Trazado_85" class="st3" d="M1284.55,212.26v-0.38c0-0.02,0-0.05,0-0.08c-0.02-0.55-0.48-0.97-1.03-0.96h-0.27
			c-0.57,0-1.03,0.46-1.03,1.03l0,0v0.38h-1.11v-0.38c0-0.02,0-0.05,0-0.08c-0.02-0.55-0.48-0.98-1.03-0.96c0,0,0,0,0,0h-0.27
			c-0.57,0-1.03,0.46-1.03,1.03l0,0v0.38h-1.14v-0.38c0-0.57-0.46-1.03-1.03-1.03l0,0h-0.27c-0.57,0-1.03,0.46-1.03,1.03l0,0v0.38
			h-1.14v-0.38c0-0.57-0.46-1.03-1.03-1.03l0,0h-0.34c-0.55,0.02-0.97,0.48-0.96,1.03v0.38c-1.21,0.17-2.11,1.21-2.11,2.43v12.11
			c0.02,1.33,1.11,2.39,2.43,2.38h12.12c1.31-0.01,2.37-1.07,2.38-2.38v-12.11C1286.66,213.47,1285.76,212.43,1284.55,212.26z
			 M1283.14,211.88c0-0.06,0.05-0.11,0.11-0.11h0.27c0.11,0,0.11,0.06,0.11,0.11v1.67c0,0.05,0,0.11-0.11,0.11h-0.27
			c-0.06,0-0.1-0.05-0.11-0.11V211.88z M1279.68,211.88c0-0.06,0.05-0.11,0.11-0.11h0.27c0.06,0,0.11,0.05,0.11,0.11v1.67
			c0,0.06-0.05,0.1-0.11,0.11h-0.27c-0.06,0-0.1-0.05-0.11-0.11V211.88z M1276.21,211.88c0-0.06,0.05-0.11,0.11-0.11h0.27
			c0.06,0,0.11,0.05,0.11,0.11v1.67c0,0.06-0.05,0.1-0.11,0.11h-0.27c-0.06,0-0.1-0.05-0.11-0.11V211.88z M1272.75,211.88
			c0-0.06,0.05-0.11,0.11-0.11h0.27c0.06,0,0.11,0.05,0.11,0.11v1.67c0,0.06-0.05,0.11-0.11,0.11h-0.27c-0.06,0-0.1-0.05-0.11-0.11
			V211.88z M1270.64,214.69c-0.02-0.72,0.48-1.36,1.19-1.52v0.38c0,0.57,0.46,1.03,1.03,1.03l0,0h0.27
			c0.56-0.02,1.01-0.47,1.03-1.03v-0.38h1.13v0.38c0.02,0.56,0.47,1.01,1.03,1.03h0.27c0.56-0.02,1.01-0.47,1.03-1.03v-0.38h1.13
			v0.38c0.02,0.56,0.47,1.01,1.03,1.03h0.27c0.57,0,1.03-0.46,1.03-1.03l0,0v-0.38h1.13v0.38c0.02,0.56,0.47,1.01,1.03,1.03h0.27
			c0.57,0,1.03-0.46,1.03-1.03l0,0v-0.38c0.71,0.16,1.21,0.79,1.19,1.52v0.54h-15.09L1270.64,214.69z M1285.74,226.82
			c0,0.8-0.66,1.45-1.46,1.45h-12.17c-0.81,0-1.47-0.65-1.47-1.46v-10.66h15.09l0.01,10.66V226.82z"/>
		<path id="Trazado_86" class="st3" d="M1274.86,223.12h-2.33c-0.19-0.01-0.36,0.13-0.38,0.32v2.38c0.02,0.19,0.19,0.33,0.38,0.32
			h2.33c0.19,0.01,0.36-0.13,0.38-0.32v-2.38C1275.22,223.26,1275.06,223.12,1274.86,223.12z"/>
		<path id="Trazado_87" class="st3" d="M1279.35,223.13h-2.32c-0.19-0.01-0.36,0.13-0.38,0.32v2.38c0.02,0.19,0.19,0.33,0.38,0.32
			h2.33c0.19,0.01,0.36-0.13,0.38-0.32v-2.38C1279.71,223.26,1279.54,223.12,1279.35,223.13z"/>
		<path id="Trazado_88" class="st3" d="M1279.35,218.37h-2.33c-0.22,0-0.38,0.11-0.38,0.32v2.38c0.02,0.19,0.19,0.33,0.38,0.32h2.33
			c0.19,0.01,0.36-0.13,0.38-0.32v-2.38C1279.73,218.47,1279.57,218.37,1279.35,218.37z"/>
		<path id="Trazado_89" class="st3" d="M1283.89,223.13h-2.38c-0.17,0.01-0.31,0.15-0.32,0.32v2.38c0.01,0.17,0.15,0.31,0.32,0.32
			h2.38c0.17-0.01,0.31-0.15,0.32-0.32v-2.38C1284.21,223.28,1284.07,223.14,1283.89,223.13z"/>
		<path id="Trazado_90" class="st3" d="M1283.9,218.37h-2.41c-0.17,0.01-0.31,0.15-0.3,0.32c0,0,0,0,0,0v2.38
			c0.01,0.17,0.15,0.31,0.32,0.32h2.38c0.17-0.01,0.31-0.15,0.32-0.32v-2.38c0-0.01,0-0.02,0-0.03
			C1284.21,218.49,1284.07,218.36,1283.9,218.37z"/>
	</g>
	<g>
		<path id="Trazado_55" class="st4" d="M43.19,15.53L43.19,15.53c0,7.15,5.79,12.94,12.94,12.94c0,0,0,0,0,0h54.12
			c7.15,0,12.94-5.79,12.94-12.94v0v-54.12c0-7.15-5.79-12.94-12.94-12.94l0,0l0,0C73.21-51.53,43.19-21.51,43.19,15.53z"/>
		<path id="Trazado_60" class="st3" d="M110.82-13.43c2.63-2.45,2.78-6.56,0.33-9.19s-6.56-2.78-9.19-0.33
			c-1.32,1.23-2.08,2.96-2.07,4.77c-0.02,1.5,0.51,2.96,1.5,4.1c-2.02,0.46-3.77,1.73-4.82,3.52l-1.76,2.8h-4.37
			c-1.23,0-2.4,0.49-3.26,1.37c-0.86-0.88-2.03-1.37-3.26-1.37h-4.36l-1.76-2.8c-1.09-1.75-2.82-3.01-4.82-3.52
			c0.96-1.15,1.49-2.6,1.5-4.1c-0.04-3.6-3-6.48-6.59-6.43c-3.53,0.04-6.39,2.9-6.43,6.43c-0.02,1.81,0.74,3.54,2.08,4.75
			c-2.68,1.29-4.37,4-4.36,6.97V6.56c0.01,2.16,1.75,3.9,3.91,3.91h9.12c2.16-0.01,3.9-1.75,3.91-3.91V1.35h7.81
			c1.23,0,2.4-0.49,3.26-1.37c0.86,0.88,2.03,1.37,3.26,1.37h7.81v5.21c0.01,2.16,1.75,3.9,3.91,3.91h9.12
			c2.15-0.01,3.9-1.75,3.91-3.91V-6.46C115.2-9.43,113.5-12.15,110.82-13.43z M67.98-22.1c2.16,0,3.91,1.75,3.91,3.91
			s-1.75,3.91-3.91,3.91c-2.16,0-3.91-1.75-3.91-3.91l0,0C64.08-20.35,65.82-22.09,67.98-22.1z M83.93-1.25h-8.4l-3.64-5.86
			c-0.41-0.59-1.19-0.79-1.82-0.46c-0.6,0.36-0.8,1.14-0.45,1.74c0.02,0.03,0.04,0.06,0.05,0.08l3.84,6.25v6.06
			c0,0.72-0.58,1.3-1.3,1.3h-9.12c-0.72,0-1.3-0.58-1.3-1.3V-6.46c0.01-2.87,2.34-5.2,5.21-5.21h4.17c1.81-0.01,3.49,0.93,4.43,2.48
			l2.08,3.39c0.23,0.39,0.65,0.64,1.11,0.65h5.14c1.06-0.02,1.94,0.82,1.96,1.88c0,0.02,0,0.05,0,0.07
			C85.88-2.13,85.01-1.26,83.93-1.25z M106.4-22.1c2.16,0,3.91,1.75,3.9,3.91s-1.75,3.91-3.91,3.9c-2.16,0-3.9-1.75-3.9-3.9
			C102.49-20.34,104.24-22.09,106.4-22.1z M112.59,6.56c0,0.72-0.58,1.3-1.3,1.3h-9.12c-0.72,0-1.3-0.58-1.3-1.3V0.44l3.84-6.25
			c0.38-0.61,0.21-1.42-0.39-1.82c-0.64-0.36-1.45-0.13-1.81,0.51c0,0.01-0.01,0.01-0.01,0.02l-3.65,5.86h-8.4
			c-1.08,0-1.96-0.87-1.96-1.95c-0.02-1.06,0.82-1.93,1.88-1.95c0.02,0,0.05,0,0.07,0h5.08c0.46-0.02,0.87-0.26,1.11-0.65l2.09-3.38
			c0.94-1.54,2.62-2.48,4.43-2.47h4.23c2.87,0.01,5.2,2.33,5.21,5.21V6.56z"/>
	</g>
	<g>
		<path id="Trazado_44" class="st5" d="M143.19,15.53L143.19,15.53c0,7.15,5.79,12.94,12.94,12.94c0,0,0,0,0,0h54.12
			c7.15,0,12.94-5.79,12.94-12.94v0v-54.12c0-7.15-5.79-12.94-12.94-12.94l0,0l0,0C173.21-51.53,143.19-21.51,143.19,15.53z"/>
		<g id="Grupo_9" transform="translate(-845.544 -208.825)">
			<path id="Trazado_45" class="st3" d="M1055.73,226.29h-36.8c0.02-0.29,0.05-0.58,0.05-0.86c0-15.76,0-31.51,0-47.27
				c0-0.29-0.04-0.58-0.05-0.86h36.8c-0.02,0.29-0.06,0.58-0.06,0.86c0,15.76,0,31.51,0,47.27
				C1055.68,225.72,1055.71,226,1055.73,226.29z M1052.65,180.4h-30.61v42.78h12.32v-9.02h5.96v9.03h12.33V180.4z"/>
			<path id="Trazado_46" class="st3" d="M1031.07,192.48h-5.94c0-1.82-0.02-3.59,0.03-5.36c0.07-0.28,0.29-0.49,0.56-0.57
				c1.77-0.05,3.53-0.03,5.35-0.03L1031.07,192.48z"/>
			<path id="Trazado_47" class="st3" d="M1043.63,186.52c1.79,0,3.53-0.02,5.26,0.03c0.3,0.09,0.53,0.32,0.61,0.62
				c0.05,1.73,0.03,3.47,0.03,5.28h-5.9L1043.63,186.52z"/>
			<path id="Trazado_48" class="st3" d="M1034.43,186.57h5.78v5.89h-5.78L1034.43,186.57z"/>
			<path id="Trazado_49" class="st3" d="M1031.09,195.82v5.8h-5.89v-5.8H1031.09z"/>
			<path id="Trazado_50" class="st3" d="M1049.44,201.64h-5.85v-5.82h5.85V201.64z"/>
			<path id="Trazado_51" class="st3" d="M1031.04,210.9c-1.79,0-3.49,0.02-5.19-0.03c-0.24-0.01-0.68-0.36-0.69-0.56
				c-0.05-1.76-0.03-3.53-0.03-5.33h5.9L1031.04,210.9z"/>
			<path id="Trazado_52" class="st3" d="M1043.6,204.97h5.84v5.87h-5.84V204.97z"/>
			<path id="Trazado_53" class="st3" d="M1040.23,201.65h-5.8v-5.82h5.8V201.65z"/>
			<path id="Trazado_54" class="st3" d="M1034.41,210.81v-5.79h5.81v5.79H1034.41z"/>
		</g>
	</g>
	<g>
		<path id="Trazado_56" class="st5" d="M243.19,15.53L243.19,15.53c0,7.15,5.79,12.94,12.94,12.94c0,0,0,0,0,0h54.12
			c7.15,0,12.94-5.79,12.94-12.94v0v-54.12c0-7.15-5.79-12.94-12.94-12.94l0,0l0,0C273.21-51.53,243.19-21.51,243.19,15.53z"/>
		<g id="Grupo_10" transform="translate(25.681 20)">
			<path id="Trazado_57" class="st3" d="M251.12-44.45c0.01,0.15,0.13,0.27,0.28,0.28h0.71c0.15-0.01,0.27-0.13,0.28-0.28v-4.39
				c-0.01-0.15-0.13-0.27-0.28-0.28h-0.71c-0.15,0.01-0.27,0.13-0.28,0.28V-44.45z M245.59-40.06h39.5v-1.42
				c0.04-1.89-1.26-3.55-3.11-3.97v0.99c0,1.48-1.2,2.69-2.69,2.69c0,0,0,0,0,0h-0.71c-1.46-0.05-2.64-1.23-2.69-2.69v-0.99h-2.97
				v0.99c0,1.48-1.2,2.69-2.69,2.69c0,0,0,0,0,0h-0.71c-1.46-0.05-2.64-1.23-2.69-2.69v-0.99h-2.97v0.99
				c-0.05,1.46-1.23,2.64-2.69,2.69h-0.71c-1.46-0.05-2.64-1.23-2.69-2.69v-0.99h-2.97v0.99c-0.05,1.47-1.23,2.64-2.69,2.69h-0.71
				c-1.48,0-2.69-1.2-2.69-2.69c0,0,0,0,0,0v-0.99c-1.85,0.41-3.16,2.07-3.12,3.97V-40.06z M285.09-37.66h-39.5v27.89
				c0.01,2.12,1.74,3.83,3.86,3.82c0.04,0,0.07,0,0.11,0h31.72c2.1,0.01,3.81-1.69,3.82-3.79c0-0.01,0-0.02,0-0.03L285.09-37.66z
				 M278.59-51.53h0.71c1.43-0.05,2.64,1.07,2.69,2.5c0,0.06,0,0.12,0,0.19v0.99c3.17,0.45,5.53,3.17,5.52,6.37v31.72
				c-0.03,3.43-2.8,6.2-6.23,6.23h-31.72c-3.48,0.03-6.32-2.75-6.37-6.23v-31.72c-0.01-3.2,2.35-5.92,5.52-6.37v-0.99
				c-0.05-1.44,1.07-2.64,2.51-2.69c0.06,0,0.12,0,0.18,0h0.71c1.48,0,2.69,1.2,2.69,2.69c0,0,0,0,0,0v0.99h2.97v-0.99
				c0-1.48,1.2-2.69,2.69-2.69c0,0,0,0,0.01,0h0.71c1.48,0,2.69,1.2,2.69,2.69c0,0,0,0,0,0v0.99h2.97v-0.99
				c0-1.48,1.2-2.69,2.69-2.69c0,0,0,0,0.01,0h0.71c1.44-0.05,2.64,1.07,2.69,2.51c0,0.06,0,0.12,0,0.18v0.99h2.97v-0.99
				C275.89-50.33,277.1-51.53,278.59-51.53C278.58-51.53,278.58-51.53,278.59-51.53z M279.3-49.13h-0.71
				c-0.15,0.01-0.27,0.13-0.28,0.28v4.39c0.01,0.15,0.13,0.27,0.28,0.28h0.71c0.28,0,0.28-0.14,0.28-0.28v-4.39
				C279.58-48.98,279.58-49.13,279.3-49.13L279.3-49.13z M270.23-49.13h-0.71c-0.15,0.01-0.27,0.13-0.28,0.28v4.39
				c0.01,0.15,0.13,0.27,0.28,0.28h0.71c0.15-0.01,0.27-0.13,0.28-0.28v-4.39C270.51-49,270.38-49.12,270.23-49.13L270.23-49.13z
				 M261.17-49.13h-0.71c-0.15,0.01-0.27,0.13-0.28,0.28v4.39c0.01,0.15,0.13,0.27,0.28,0.28h0.71c0.15-0.01,0.27-0.13,0.28-0.28
				v-4.39C261.45-49,261.32-49.12,261.17-49.13L261.17-49.13z"/>
			<path id="Trazado_58" class="st6" d="M262.3-31.85h6.09c0.57,0,0.99,0.28,0.99,0.85v6.23c-0.05,0.5-0.49,0.88-0.99,0.85h-6.09
				c-0.5,0.03-0.94-0.35-0.99-0.85V-31C261.31-31.57,261.74-31.85,262.3-31.85z M274.06-31.85h6.23c0.45-0.02,0.83,0.33,0.85,0.78
				c0,0.02,0,0.05,0,0.07v6.23c-0.03,0.46-0.39,0.82-0.85,0.85h-6.23c-0.46-0.03-0.82-0.39-0.85-0.85V-31
				c-0.02-0.45,0.33-0.83,0.78-0.85C274.01-31.85,274.04-31.85,274.06-31.85z M250.56-19.39h6.08c0.5-0.03,0.94,0.35,0.99,0.85v6.23
				c-0.05,0.5-0.49,0.88-0.99,0.85h-6.09c-0.5,0.03-0.94-0.35-0.99-0.85v-6.23C249.61-19.04,250.05-19.42,250.56-19.39L250.56-19.39
				z M262.31-19.39h6.09c0.5-0.03,0.94,0.35,0.99,0.85v6.23c-0.05,0.5-0.49,0.88-0.99,0.85h-6.1c-0.5,0.03-0.94-0.35-0.99-0.85
				v-6.23C261.36-19.04,261.8-19.42,262.31-19.39L262.31-19.39z M274.06-19.39h6.23c0.46,0.03,0.82,0.39,0.85,0.85v6.23
				c-0.03,0.46-0.39,0.82-0.85,0.85h-6.23c-0.46-0.03-0.82-0.39-0.85-0.85v-6.23C273.24-19,273.6-19.36,274.06-19.39L274.06-19.39z"
				/>
		</g>
	</g>
	<g id="Grupo_7" transform="translate(-2110.393 -840.601)">
		<g id="Grupo_1" transform="translate(2110.393 1042.788)">
			<path id="Trazado_1" class="st7" d="M461.94,15.74c0.09,0.77-0.39,1.5-1.14,1.71c-2.08,0.71-4.25,1.1-6.44,1.14
				c-5.44,0-9.1-1.96-10.99-5.88c-4.29,3.85-9.87,5.94-15.63,5.88c-7.33,0-13.35-2.26-18.05-6.78c-4.71-4.52-7.06-10.31-7.06-17.39
				c0-7.07,2.35-12.87,7.06-17.39s10.72-6.77,18.05-6.77c4.79-0.08,9.47,1.38,13.36,4.17v-1.33c-0.1-0.69,0.38-1.32,1.07-1.42
				c0.12-0.02,0.24-0.02,0.36,0h8.72c0.69-0.1,1.32,0.38,1.42,1.07c0.02,0.12,0.02,0.24,0,0.36V4.93c-0.05,0.94,0.27,1.86,0.9,2.56
				c0.63,0.65,1.51,0.99,2.42,0.95c1.18-0.02,2.35-0.14,3.51-0.38c1.01-0.19,1.58,0.19,1.71,1.14L461.94,15.74z M427.83,9.1
				c3.64,0.12,7.15-1.39,9.57-4.12c4.92-6.18,4.92-14.95,0-21.13c-2.42-2.73-5.93-4.24-9.57-4.12c-3.71-0.11-7.29,1.39-9.81,4.12
				c-5.12,6.12-5.12,15.02,0,21.13C420.54,7.72,424.11,9.22,427.83,9.1L427.83,9.1z"/>
			<path id="Trazado_2" class="st7" d="M481.93,18.58c-3.98,0-7.18-0.96-9.62-2.89c-2.37-1.81-3.73-4.64-3.65-7.63v-56.52
				c-0.1-0.69,0.38-1.32,1.07-1.42c0.12-0.02,0.24-0.02,0.36,0h8.72c0.69-0.1,1.32,0.38,1.42,1.07c0.02,0.12,0.02,0.24,0,0.36v53.4
				c-0.05,0.94,0.27,1.86,0.9,2.56c0.63,0.65,1.51,0.99,2.42,0.95c1.18-0.02,2.35-0.14,3.51-0.38c1.01-0.19,1.58,0.19,1.71,1.14
				l0.75,6.54c0.15,0.78-0.35,1.54-1.13,1.71C486.3,18.16,484.13,18.54,481.93,18.58z"/>
			<path id="Trazado_3" class="st7" d="M502.02-38.27c-1.9,0.05-3.73-0.65-5.12-1.94c-2.59-2.34-2.79-6.33-0.46-8.92
				c0.14-0.16,0.3-0.31,0.46-0.46c2.9-2.59,7.29-2.59,10.19,0c2.59,2.26,2.86,6.19,0.6,8.78c-0.19,0.21-0.38,0.41-0.6,0.6
				C505.71-38.94,503.9-38.24,502.02-38.27z M509.51,18.58c-3.98,0-7.19-0.96-9.62-2.89c-2.37-1.8-3.73-4.64-3.65-7.63V-26.9
				c-0.1-0.69,0.38-1.33,1.07-1.42c0.12-0.02,0.23-0.02,0.35,0h8.72c0.69-0.1,1.32,0.38,1.42,1.07c0.02,0.12,0.02,0.24,0,0.36V4.94
				c-0.05,0.94,0.27,1.86,0.9,2.56c0.63,0.65,1.51,0.99,2.41,0.95c1.18-0.02,2.35-0.14,3.51-0.38c1.01-0.19,1.57,0.19,1.7,1.14
				l0.76,6.54c0.15,0.78-0.36,1.54-1.14,1.71C513.87,18.16,511.7,18.54,509.51,18.58L509.51,18.58z"/>
			<path id="Trazado_4" class="st7" d="M543.05,18.58c-6.44,0-11.64-1.33-15.58-3.98c-3.84-2.49-6.39-6.54-6.97-11.08
				C520.37,2.51,520.84,2,521.92,2l7.96,0.1c0.74-0.02,1.38,0.5,1.52,1.23c1.39,4.23,5.27,6.35,11.65,6.35
				c2.3,0.09,4.58-0.39,6.64-1.42c1.7-0.95,2.55-2.18,2.56-3.7c0-1.83-1.04-3.17-3.12-4.03c-2.42-0.94-4.95-1.56-7.53-1.85
				c-2.93-0.38-5.87-0.88-8.81-1.52c-2.85-0.58-5.47-1.98-7.53-4.03c-2.09-2.05-3.13-4.88-3.13-8.48c-0.06-4.18,2.01-8.11,5.5-10.42
				c3.66-2.65,8.5-3.98,14.5-3.98c5.56,0,10.23,1.23,14.02,3.69c3.55,2.11,5.98,5.68,6.63,9.76c0.13,1.01-0.35,1.51-1.42,1.51h-7.96
				c-0.82,0-1.33-0.28-1.52-0.85c-0.62-1.77-1.89-3.24-3.55-4.12c-1.89-1.07-4.03-1.61-6.2-1.57c-2.15-0.1-4.29,0.36-6.21,1.33
				c-1.38,0.62-2.28,1.98-2.32,3.5c-0.02,1.6,0.83,3.09,2.23,3.88c1.67,1.01,3.55,1.63,5.49,1.8c2.18,0.25,4.57,0.65,7.16,1.18
				c2.42,0.49,4.81,1.13,7.16,1.9c2.2,0.75,4.12,2.15,5.5,4.03c1.55,2.18,2.34,4.81,2.23,7.48c0.07,4.29-2.03,8.32-5.59,10.71
				C554.01,17.22,549.11,18.58,543.05,18.58z"/>
			<path id="Trazado_5" class="st7" d="M594.31,18.58c-7.58,0-13.68-2.21-18.28-6.64c-4.61-4.42-6.92-10.27-6.92-17.53
				c0-7.26,2.31-13.11,6.92-17.53s10.71-6.63,18.28-6.63c6,0,11.07,1.48,15.21,4.45c4.02,2.79,6.79,7.04,7.72,11.85
				c0.19,1.01-0.22,1.51-1.23,1.51h-9c-0.74,0.02-1.38-0.5-1.52-1.23c-0.73-2.06-2.18-3.79-4.08-4.88c-2.15-1.26-4.61-1.9-7.11-1.85
				c-3.71-0.16-7.31,1.27-9.9,3.93c-2.5,2.62-3.75,6.08-3.74,10.38s1.25,7.75,3.74,10.38c2.59,2.66,6.19,4.09,9.9,3.93
				c2.49,0.06,4.96-0.58,7.11-1.85c1.9-1.08,3.35-2.82,4.08-4.88c0.14-0.73,0.78-1.25,1.52-1.23h9c1.01,0,1.42,0.51,1.23,1.52
				c-0.93,4.8-3.7,9.05-7.72,11.84C605.38,17.1,600.31,18.58,594.31,18.58z"/>
			<path id="Trazado_6" class="st7" d="M666.66,11.95c-4.64,4.42-10.75,6.63-18.33,6.64c-7.58,0-13.69-2.21-18.33-6.64
				c-4.65-4.42-6.97-10.26-6.97-17.53s2.32-13.11,6.97-17.53c4.64-4.42,10.75-6.63,18.33-6.63c7.58,0,13.69,2.21,18.33,6.63
				c4.64,4.42,6.97,10.27,6.97,17.53S671.3,7.53,666.66,11.95z M638.37,4.75c5.62,5.18,14.28,5.18,19.9,0
				c2.52-2.59,3.79-6.03,3.79-10.33s-1.26-7.74-3.79-10.33c-5.62-5.18-14.28-5.18-19.9,0c-2.53,2.59-3.79,6.03-3.79,10.33
				C634.59-1.28,635.85,2.16,638.37,4.75L638.37,4.75z"/>
			<path id="Trazado_7" class="st7" d="M393.53-49.17c0.79,0,1.42,0.64,1.42,1.42v40.94c0,7.96-2.34,14.18-7.01,18.67
				s-11.15,6.73-19.43,6.73c-7.08,0-12.9-1.86-17.48-5.59c-4.55-3.66-7.38-9.05-7.82-14.88c-0.12-1.01,0.35-1.52,1.42-1.52h9.29
				c0.74-0.05,1.37,0.51,1.42,1.25c0,0.03,0,0.05,0,0.08c0.45,2.94,2.07,5.57,4.5,7.29c2.76,1.91,6.07,2.88,9.43,2.75
				c3.71,0.14,7.3-1.39,9.76-4.17c2.47-2.78,3.7-6.44,3.69-10.99v-28.45c0-3.79-4.05-4.62-6.53-4.77h-0.74
				c-0.64,0-1.15-0.52-1.15-1.15c0,0,0,0,0,0v-6.45c0-0.64,0.52-1.16,1.15-1.16H393.53z"/>
		</g>
		<g id="Grupo_2" transform="translate(2133.582 1136.905)">
			<path id="Trazado_8" class="st7" d="M350.8-51.54c2.99,0,5.82,1.38,6.75,4.71h-2.47c-0.77-1.64-2.49-2.62-4.3-2.45
				c-3.16,0-5.05,2.43-5.05,5.44c0,3.18,1.96,5.46,5.05,5.46c2.58,0,4.45-1.03,4.86-3.91h-4.68v-2.13H358
				c0.17,4.49-2.04,8.32-7.22,8.32c-4.26-0.07-7.65-3.59-7.58-7.85C343.27-48.12,346.64-51.47,350.8-51.54L350.8-51.54z"/>
			<path id="Trazado_9" class="st7" d="M369.33-36.11c-4.26,0.01-7.72-3.43-7.74-7.69c-0.01-4.26,3.43-7.72,7.69-7.74
				s7.72,3.43,7.74,7.69c0,0.01,0,0.01,0,0.02c0.21,4.05-2.9,7.5-6.95,7.71C369.83-36.1,369.58-36.1,369.33-36.11z M369.38-38.47
				c2.96,0.13,5.46-2.17,5.59-5.13c0.13-2.96-2.17-5.46-5.13-5.59s-5.46,2.17-5.59,5.13c0,0.08-0.01,0.16,0,0.24
				C364.24-40.32,366.54-38.47,369.38-38.47L369.38-38.47z"/>
			<path id="Trazado_10" class="st7" d="M390.83-44.12c1.51,0.46,2.52,1.9,2.43,3.48c0,2.69-1.85,4.34-4.77,4.34h-6.73v-15.04h6.1
				c2.73,0,4.73,1.44,4.73,4.28C392.64-45.83,391.95-44.67,390.83-44.12z M384.26-49.17v4.23h3.44c1.44,0,2.43-0.6,2.45-2.06
				c0-1.48-0.99-2.17-2.45-2.17L384.26-49.17z M384.26-42.9v4.4h4.09c1.23,0.12,2.33-0.79,2.44-2.02c0.07-0.72-0.22-1.43-0.77-1.91
				c-0.58-0.37-1.27-0.54-1.96-0.47L384.26-42.9z"/>
			<path id="Trazado_11" class="st7" d="M404.27-38.32v2.02h-7.26v-2.02h2.39v-11.03h-2.19v-2h6.88v2h-2.19v11.03L404.27-38.32z"/>
			<path id="Trazado_12" class="st7" d="M418.03-49.15h-6.64v3.98h6.28v2.21h-6.28v4.38h6.77v2.28h-9.29v-15.04h9.16L418.03-49.15z"
				/>
			<path id="Trazado_13" class="st7" d="M435.26-36.67v0.37h-2.54l-3.74-5.24h-3.31v5.24h-2.51v-15.04h6.21
				c2.67-0.21,5.01,1.79,5.21,4.47c0.01,0.14,0.02,0.29,0.01,0.43c0.03,2.03-1.24,3.84-3.16,4.51L435.26-36.67z M429.35-43.61
				c1.5,0.05,2.76-1.12,2.81-2.62c0-0.06,0-0.13,0-0.19c0.03-1.49-1.14-2.72-2.63-2.75c-0.06,0-0.12,0-0.18,0h-3.72v5.57
				L429.35-43.61z"/>
			<path id="Trazado_14" class="st7" d="M441.99-46.53l0.17,4.77v5.46h-2.47v-15.08h0.91l9.13,10.12l-0.17-4.6v-5.48h2.49v15.06
				h-0.86L441.99-46.53z"/>
			<path id="Trazado_15" class="st7" d="M464.42-36.11c-4.26,0.01-7.72-3.43-7.74-7.69c-0.01-4.26,3.43-7.72,7.69-7.74
				s7.72,3.43,7.74,7.69c0,0.01,0,0.02,0,0.02c0.21,4.05-2.9,7.5-6.95,7.71C464.92-36.1,464.67-36.1,464.42-36.11z M464.46-38.47
				c2.96,0.13,5.47-2.17,5.59-5.13c0.13-2.96-2.17-5.47-5.13-5.59c-2.96-0.13-5.47,2.17-5.59,5.13c0,0.08-0.01,0.16-0.01,0.24
				C459.33-40.32,461.63-38.47,464.46-38.47L464.46-38.47z"/>
			<path id="Trazado_16" class="st7" d="M489.58-51.33c3.94-0.12,7.23,2.97,7.35,6.91c0.01,0.19,0,0.38,0,0.56
				c0,3.96-2.62,7.54-7.35,7.54h-5.44v-15.02H489.58z M489.53-38.58c3.11,0,4.9-2.41,4.9-5.24s-1.8-5.24-4.88-5.24h-2.92v10.49
				L489.53-38.58z"/>
			<path id="Trazado_17" class="st7" d="M510.84-49.15h-6.64v3.98h6.28v2.21h-6.28v4.38h6.77v2.28h-9.29v-15.04h9.16L510.84-49.15z"
				/>
			<path id="Trazado_18" class="st7" d="M518.48-38.55h6.47v2.26h-8.98v-15.05h2.51V-38.55z"/>
			<path id="Trazado_19" class="st7" d="M544.82-49.15h-6.64v3.98h6.28v2.21h-6.28v4.38h6.77v2.28h-9.29v-15.04h9.16L544.82-49.15z"
				/>
			<path id="Trazado_20" class="st7" d="M551.36-40.58c0.1,1.7,1.95,2.24,3.59,2.24c1.59,0,3.48-0.39,3.48-2.26
				c0-1.98-2.04-2.17-3.78-2.34c-2.75-0.23-5.48-1.11-5.48-4.12c0-3.09,2.73-4.47,5.65-4.47c2.86,0,5.57,1.29,5.63,4.36h-2.3
				c-0.11-1.61-1.87-2.12-3.35-2.12c-1.38,0-3.16,0.47-3.16,2.17s1.7,1.91,3.44,2.15c3.05,0.34,5.84,0.94,5.84,4.41
				c0,3.31-3.11,4.47-5.93,4.47c-2.94,0.07-6.02-1.31-6.08-4.47L551.36-40.58z"/>
			<path id="Trazado_21" class="st7" d="M564.03-49.13v-2.21h11.17v2.21h-4.36v12.83h-2.45v-12.83H564.03z"/>
			<path id="Trazado_22" class="st7" d="M580.47-39.42l-1.46,3.11h-2.62v-0.33l6.96-14.83h1.16l6.92,14.83v0.32h-2.6l-1.48-3.11
				L580.47-39.42z M581.29-41.52h5.26l-2.62-6.02L581.29-41.52z"/>
			<path id="Trazado_23" class="st7" d="M600.69-51.33c3.94-0.12,7.23,2.97,7.35,6.91c0.01,0.19,0,0.38,0,0.56
				c0,3.96-2.62,7.54-7.35,7.54h-5.44v-15.02H600.69z M600.65-38.58c3.11,0,4.9-2.41,4.9-5.24s-1.8-5.24-4.88-5.24h-2.92v10.49
				L600.65-38.58z"/>
			<path id="Trazado_24" class="st7" d="M619.54-36.11c-4.26,0.01-7.72-3.43-7.73-7.7s3.43-7.72,7.7-7.73
				c4.26-0.01,7.72,3.43,7.73,7.7c0,0.01,0,0.01,0,0.02c0.21,4.05-2.9,7.5-6.95,7.71C620.04-36.1,619.79-36.1,619.54-36.11z
				 M619.58-38.47c2.96,0.13,5.47-2.17,5.59-5.13s-2.17-5.47-5.13-5.59c-2.96-0.13-5.47,2.17-5.59,5.13c0,0.08-0.01,0.16,0,0.24
				C614.45-40.32,616.75-38.47,619.58-38.47L619.58-38.47z"/>
		</g>
		<g id="Grupo_6" transform="translate(2185.096 840.601)">
			<g id="Grupo_5">
				<g id="Grupo_3">
					<path id="Trazado_25" class="st7" d="M432.14-29.07v8.3c1.11-0.24,2.25-0.24,3.35-0.01l0,0v-8.29
						C434.4-29.42,433.23-29.42,432.14-29.07z"/>
					<path id="Trazado_26" class="st7" d="M397.38-26.87c0.05,0.52,0.38,0.97,0.85,1.19c3.43,1.63,7.17,2.48,10.97,2.51
						c5.13-0.04,10.13-1.64,14.32-4.59c6.12-4.04,13.97-4.37,20.39-0.84c-1.46,1.36-3.39,2.09-5.38,2.04h-1.27v2.95h1.27
						c3.55,0.11,6.9-1.63,8.85-4.6l0,0l0.02-0.04l0,0c0.12-0.22,0.19-0.47,0.19-0.72v-17.57c0-0.49-0.24-0.95-0.64-1.22
						c-7.61-5.04-17.49-5.04-25.09,0c-6.57,4.66-15.15,5.37-22.39,1.84c-0.74-0.34-1.62-0.02-1.96,0.72
						c-0.28,0.6-0.12,1.3,0.37,1.73l9.58,8.28l-9.49,6.97C397.55-27.89,397.33-27.39,397.38-26.87z M410.7-33.9
						c0.66-0.48,0.8-1.41,0.32-2.06c-0.07-0.09-0.14-0.17-0.22-0.24l-5.63-4.86c6.44,1.05,13.03-0.48,18.36-4.25
						c6.37-4.21,14.59-4.38,21.12-0.42v14.18c-7.29-3.65-15.98-3.13-22.78,1.36c-5.81,4.13-13.28,5.18-20,2.8L410.7-33.9z"/>
					<path id="Trazado_27" class="st7" d="M432.14-36.32h3.36v-3.19h3.19v-3.36h-3.19v-3.19h-3.36v3.19h-3.19v3.36h3.19V-36.32z"/>
					<path id="Trazado_28" class="st7" d="M505.53,85.15c1.06-1.25,2.17-2.53,3.25-3.76c4.42-5.04,8.98-10.26,11.98-16.63
						c2.51-5.09,3.5-10.79,2.86-16.43c-1.19-8.99-7.03-16.69-15.36-20.28c1.4-2.28,1.98-4.96,1.67-7.61l-0.01-0.07
						c-0.11-0.88-0.91-1.51-1.79-1.41c-0.36,0.04-0.7,0.21-0.95,0.46c-1.72,1.72-4.27,2.29-6.56,1.46l-0.23-0.09
						c-4.92-1.88-10.24-2.46-15.45-1.69c0-0.07,0.01-0.15,0.01-0.22c0-1.12-0.18-2.22-0.53-3.28c-0.28-0.84-1.2-1.3-2.04-1.02
						c-0.1,0.03-0.2,0.08-0.29,0.13c-0.65,0.37-1.38,0.56-2.12,0.56c-0.17,0-0.33-0.01-0.5-0.03c-0.89-0.09-1.67-0.13-2.38-0.13
						c-2.26,0-4.5,0.31-6.67,0.93c-1.06,0.3-2.1,0.68-3.1,1.12c-2,0.88-3.87,2.03-5.56,3.41c-0.84,0.68-1.64,1.42-2.39,2.22
						c-0.47,0.5-0.94,1.02-1.38,1.56s-0.81,1.11-1.18,1.68c-0.77,1.17-1.45,2.4-2.23,3.56c-0.08,0.12-0.16,0.24-0.25,0.37
						l-0.13,0.19c-0.03,0.03-0.12,0.13-0.12,0.17l-0.02,0.02l-0.06,0.08c-0.23,0.31-0.47,0.62-0.72,0.92
						c-0.26,0.33-0.54,0.65-0.82,0.96c-0.43,0.48-0.87,0.93-1.33,1.37c-0.18,0.17-0.36,0.33-0.53,0.5
						c-0.32,0.29-0.64,0.58-0.98,0.86c-0.09,0.08-0.19,0.16-0.28,0.24l-4.91-3.38l-0.78-4.7c0.33-0.51,0.64-1.03,0.92-1.55
						l0.18-0.29c0.15-0.29,0.27-0.58,0.41-0.88l0.1-0.24c0.11-0.25,0.22-0.5,0.32-0.75c0.04-0.1,0.09-0.2,0.12-0.3
						s0.08-0.23,0.12-0.34l1.38-0.3l1.1-8l0,0v-0.01l-1.49-0.36c-0.03-0.26-0.05-0.51-0.1-0.77c-0.06-0.33-0.11-0.67-0.19-1
						c-0.24-0.95-0.58-1.87-1.03-2.75c-0.03-0.06-0.04-0.12-0.06-0.18c-1.2-2.37-3.28-4.18-5.79-5.05c-0.06-0.02-0.13-0.04-0.2-0.07
						l0.09-0.22c0.07-0.18,0.14-0.35,0.22-0.53c0.94-2.11,2.58-3.83,4.63-4.89c0.34,0.86,0.51,1.47,0.52,1.48
						c0.21,0.65,0.85,1.07,1.53,0.98c0.42-0.05,0.81-0.2,1.16-0.43c0.57-0.4,1.05-0.92,1.4-1.53c1.89-3.03,2.18-6.79,0.76-10.07
						c-1.02-2.56-3.41-4.31-6.16-4.5c-0.92-0.03-1.84,0.13-2.7,0.47c-1.86-3.9-6.54-5.55-10.44-3.69c-1.61,0.77-2.92,2.07-3.69,3.69
						c-0.86-0.34-1.78-0.51-2.7-0.47c-2.75,0.19-5.14,1.94-6.16,4.5c-1.41,3.28-1.13,7.04,0.76,10.07c0.35,0.6,0.83,1.12,1.4,1.53
						c0.34,0.24,0.74,0.39,1.16,0.43c0.68,0.08,1.31-0.33,1.52-0.98c0-0.01,0.18-0.62,0.52-1.48c2.05,1.06,3.68,2.78,4.63,4.89
						c0.08,0.17,0.15,0.35,0.22,0.53l0.1,0.22L428,4.46c-2.51,0.87-4.58,2.68-5.79,5.05c-0.02,0.06-0.04,0.12-0.06,0.18
						c-0.45,0.87-0.79,1.79-1.03,2.75c-0.08,0.33-0.13,0.66-0.19,1c-0.04,0.26-0.06,0.51-0.1,0.77l-1.49,0.36v0.01l0,0l1.1,8
						l1.38,0.3c0.04,0.11,0.07,0.23,0.12,0.34s0.08,0.2,0.12,0.3c0.1,0.25,0.21,0.5,0.32,0.75l0.1,0.24
						c0.13,0.29,0.26,0.59,0.41,0.88l0.18,0.29c0.28,0.53,0.6,1.05,0.94,1.58l-0.78,4.68l-4.93,3.4c-0.96-0.77-1.86-1.61-2.7-2.51
						c-0.15-0.16-0.29-0.32-0.43-0.48c-0.55-0.61-1.06-1.24-1.54-1.89l-0.07-0.09c0-0.04-0.1-0.14-0.12-0.17L413.29,30
						c-0.08-0.12-0.17-0.24-0.25-0.37c-0.78-1.16-1.46-2.39-2.22-3.56c-0.38-0.57-0.75-1.14-1.18-1.68s-0.9-1.06-1.38-1.56
						c-2.25-2.39-4.95-4.3-7.95-5.62c-3.08-1.36-6.41-2.06-9.78-2.06c-0.71,0-1.49,0.04-2.38,0.13c-0.17,0.02-0.33,0.03-0.5,0.03
						c-0.75,0-1.48-0.19-2.13-0.56c-0.42-0.24-0.92-0.28-1.38-0.11c-0.45,0.17-0.8,0.54-0.95,1c-0.35,1.06-0.53,2.17-0.53,3.28
						c0,0.1,0.01,0.21,0.01,0.32c-5.4-0.91-10.94-0.36-16.05,1.59l-0.23,0.09c-2.28,0.83-4.84,0.26-6.56-1.46
						c-0.63-0.63-1.65-0.63-2.28,0c-0.26,0.26-0.42,0.59-0.46,0.95l-0.01,0.07c-0.32,2.65,0.27,5.33,1.67,7.61
						c-8.33,3.58-14.16,11.29-15.36,20.28c-0.65,5.64,0.34,11.34,2.86,16.43c3,6.37,7.56,11.59,11.98,16.63
						c1.08,1.23,2.2,2.51,3.26,3.76c0.35,0.42,0.73,0.86,1.11,1.3c2.75,3.18,5.86,6.8,5.86,10.25c0,3.72-2.22,5.94-5.94,5.94
						c-0.78,0-1.55-0.13-2.28-0.4c-0.29-0.1-0.59-0.16-0.9-0.17v-0.01c0,0-3.08-0.37-3.94,2.46c-0.29,0-0.59,0.04-0.87,0.12
						c-1.51,0.42-2.5,1.87-2.34,3.43l0.02,0.17c1.09,9.28,8.86,16.34,18.2,16.53h0.25c4.16-0.06,8.19-1.47,11.48-4.03l0.1,0.1
						c1.11,1.12,2.87,1.27,4.17,0.36c2.52-1.79,4.6-4.12,6.08-6.84l0.03,0.02c0.12-0.22,0.23-0.44,0.34-0.67
						c0.11,0.19,0.21,0.38,0.32,0.57c0.22,0.37,0.45,0.73,0.67,1.09c8.17,12.69,23.35,20.58,39.64,20.58s31.48-7.89,39.64-20.58
						c0.23-0.36,0.46-0.72,0.68-1.09c0.11-0.19,0.22-0.38,0.32-0.57c0.11,0.23,0.22,0.45,0.34,0.67l0.03-0.02
						c1.48,2.71,3.56,5.05,6.08,6.84c1.29,0.91,3.05,0.76,4.16-0.36l0.1-0.1c3.29,2.56,7.32,3.97,11.48,4.03h0.25
						c9.34-0.19,17.11-7.25,18.2-16.53l0.02-0.17c0.18-1.78-1.12-3.36-2.9-3.54c-0.1-0.01-0.21-0.02-0.32-0.02
						c-0.86-2.83-3.94-2.46-3.94-2.46v0.01c-0.31,0.01-0.61,0.07-0.9,0.17c-0.73,0.27-1.5,0.4-2.28,0.4c-3.72,0-5.94-2.22-5.94-5.94
						c0-3.46,3.11-7.07,5.86-10.25C504.8,86.01,505.18,85.57,505.53,85.15z M489.44,22.02c3.36,0,6.68,0.61,9.82,1.81l0.25,0.09
						c2.3,0.84,4.85,0.76,7.09-0.24c-0.25,1.17-0.74,2.27-1.44,3.23c-2.09-0.41-4.2-0.67-6.32-0.79c-8.02,0-15.46,4.16-19.66,10.99
						c-0.48-1.51-1.9-2.52-3.49-2.47h-9.44C471.33,26.78,480.07,22.02,489.44,22.02z M492.78,61.65c0.08,0.26,0.17,0.51,0.27,0.76
						c1.51,3.73,5.19,6.12,9.22,5.99c0.11,0,0.22,0,0.33-0.01c0.05,0,0.01,0,0.06-0.01l0,0c-6.98,7.12-16.73,10.92-23.39,18.34
						V61.17c0.29-0.28,0.51-0.48,0.7-0.68c1.89-1.95,3.61-4.14,5.56-6.06c2.91-2.87,6.23-5.37,10.41-5.92
						c1.66-0.34,3.38-0.14,4.92,0.57c0.83,0.46,1.5,1.17,1.91,2.03c0.79,1.7,0.43,3.72-0.9,5.05c-0.13,0.12-0.27,0.23-0.42,0.32
						c-0.66,0.46-1.42,0.74-2.21,0.82c-0.52,0.06-1.05,0-1.55-0.16c-0.58-0.23-1.21-0.32-1.84-0.26c-0.97,0.09-1.86,0.58-2.46,1.34
						C492.65,59.2,492.41,60.48,492.78,61.65L492.78,61.65z M445.21,17.04l-0.31,2.83l-0.05,0.01h-0.01l0,0l-1.55,0.32l-1.5,0.31
						v-4.29c0.64,0.15,1.28,0.3,1.91,0.45C444.22,16.8,444.72,16.92,445.21,17.04z M433.8,25.44l0.03-0.01l0.02,0.01l8.18-1.76v0.01
						c-0.32,0.65-0.69,1.28-1.09,1.88c-0.28,0.41-0.58,0.82-0.9,1.21c-2.15,3.43-6.67,4.47-10.1,2.32
						c-0.94-0.59-1.73-1.38-2.32-2.32c-0.32-0.39-0.62-0.8-0.9-1.21c-0.4-0.6-0.76-1.23-1.09-1.88v-0.01L433.8,25.44z M428.99,21.16
						v-5.68c1.24-0.3,2.38-0.57,3.27-0.78v7.13L428.99,21.16z M435.39,21.83V14.7c0.89,0.21,2.02,0.48,3.27,0.78v5.68L435.39,21.83z
						 M424.73-4.08c0.59-0.94,1.4-1.72,2.36-2.28c-2.34,0.28-4.52,1.35-6.17,3.04c-0.85-1.98-0.85-4.22,0-6.2
						c0.52-1.42,1.82-2.4,3.33-2.52c1.14-0.02,2.27,0.26,3.26,0.83c2.47,1.33,4.26,3.66,4.9,6.39c0.26-2.6-0.49-5.2-2.09-7.27
						c-0.25-0.34-0.53-0.66-0.83-0.96c0.84-2.39,3.45-3.65,5.84-2.81c1.31,0.46,2.35,1.49,2.81,2.81c-0.3,0.3-0.58,0.62-0.83,0.96
						c-1.6,2.06-2.35,4.67-2.09,7.27c0.64-2.73,2.43-5.06,4.9-6.39c0.99-0.56,2.12-0.85,3.27-0.83c1.5,0.12,2.8,1.1,3.33,2.52
						c0.85,1.98,0.85,4.22,0,6.2c-1.65-1.68-3.82-2.75-6.17-3.04c0.96,0.55,1.77,1.34,2.36,2.28c-2.7,1.4-4.85,3.67-6.08,6.45
						c-0.08,0.2-0.17,0.4-0.25,0.6c-0.06,0.14-0.11,0.28-0.17,0.41c-0.9-0.37-1.71-0.87-2.58-1.33l-0.01,0.01h-0.01
						c-0.88,0.46-1.68,0.96-2.58,1.33c-0.06-0.13-0.11-0.27-0.17-0.41c-0.09-0.2-0.17-0.4-0.25-0.6
						C429.57-0.4,427.43-2.68,424.73-4.08L424.73-4.08z M429.46,7.51c0.72-0.25,1.5-0.46,2.23-0.74c0.73-0.32,1.45-0.7,2.13-1.11
						c0.69,0.42,1.4,0.79,2.13,1.11c0.73,0.28,1.51,0.49,2.23,0.74c2.56,0.97,4.46,3.15,5.08,5.82c-8.6-2.12-9.2-2.26-9.42-2.27
						h-0.05c-0.21,0.01-0.81,0.15-9.42,2.27C425,10.66,426.9,8.48,429.46,7.51L429.46,7.51z M422.79,19.88L422.79,19.88h-0.01
						l-0.04-0.01l-0.31-2.83c0.49-0.12,1-0.23,1.51-0.36c0.63-0.15,1.27-0.3,1.91-0.45v4.29l-1.5-0.31L422.79,19.88z M426.38,33.53
						l0.48-2.76c0.07,0.06,0.14,0.12,0.22,0.18c1.81,1.76,4.21,2.79,6.73,2.87h0.01h0.01c2.52-0.08,4.93-1.1,6.73-2.87l0.23-0.24
						l0.49,2.82l5.36,3.71c-0.26,0.16-0.53,0.32-0.8,0.48c-2.28,1.32-4.74,2.29-7.31,2.9c-1.55,0.41-3.14,0.63-4.74,0.66
						c-1.38-0.04-2.75-0.22-4.09-0.53c-2.64-0.55-5.19-1.5-7.54-2.82c-0.39-0.22-0.77-0.45-1.16-0.69L426.38,33.53z M362.15,24.25
						c1.78,0.41,3.65,0.29,5.37-0.33l0.25-0.09c12.18-4.64,25.94-0.12,33,10.82h-9.43c-1.58-0.05-3,0.96-3.48,2.47
						c-4.2-6.83-11.64-10.99-19.66-10.99c-2.12,0.12-4.24,0.38-6.32,0.79c-0.7-0.97-1.19-2.07-1.44-3.23
						C360.99,23.93,361.56,24.12,362.15,24.25L362.15,24.25z M391.72,106.02c-0.02,0.26-0.05,0.52-0.08,0.78l-0.02,0.17
						c-0.04,0.28-0.08,0.55-0.13,0.81l-0.01,0.07c-0.23,1.23-0.6,2.42-1.1,3.57l-0.06,0.15c-0.09,0.21-0.19,0.41-0.29,0.61
						c-0.07,0.14-0.14,0.28-0.22,0.42c-1.26,2.37-3.05,4.42-5.24,5.97c3.06-4.26,4-9.69,2.55-14.73l-0.01-0.05
						c-0.28,3.51-1.34,6.91-3.1,9.96l-0.02,0.04c-2.75,4.77-7.83,7.72-13.34,7.75h-0.2c-7.37,0-14.11-6.04-15-13.67l-0.01-0.07
						l-0.02-0.05c0.03,0.03,0.06,0.07,0.08,0.11c3.42,5.25,10.44,6.73,15.68,3.32c3.01-1.96,4.91-5.22,5.13-8.8
						c-0.95,2.42-2.71,4.44-4.98,5.71c0.01,0-0.05,0.03-0.14,0.08c-0.63,0.35-1.3,0.64-1.99,0.85c-2.93,0.99-8.18,1.72-11.2-4.12
						c0.24,0.08,0.48,0.17,0.71,0.28c0.5,0.21,1.01,0.39,1.53,0.52c0.57,0.12,1.15,0.18,1.74,0.19c0.53,0.01,1.06-0.02,1.58-0.07
						c0.26-0.02,0.53-0.05,0.79-0.08c0.19-0.03,0.38-0.07,0.57-0.11c0.8-0.18,1.57-0.46,2.29-0.84c0.69-0.36,1.32-0.82,1.88-1.37
						c0.56-0.54,1.03-1.16,1.41-1.84c0.4-0.71,0.69-1.47,0.89-2.26c0.21-0.85,0.31-1.73,0.31-2.61c0-5.23-4.59-9.9-7.73-13.63
						c-5.28-6.25-11.25-12.19-14.78-19.68c-2.24-4.53-3.13-9.6-2.58-14.62c1.48-10.88,10.42-19.41,21.59-19.41
						c7.18,0,13.8,3.87,17.32,10.13c0.32,0.62,2.23,4.47,2.24,7.47V56l-0.02-0.03c-2.21-2.7-4.71-5.14-7.47-7.28
						c-4.3-3.06-10.64-5.29-15.61-2.5c-4.01,2.26-5.44,7.34-3.18,11.35c0.12,0.22,0.25,0.43,0.39,0.63c1.97,2.65,5.4,3.75,8.54,2.73
						c0,0-1.8,5.75-8.63,3.25c-0.5-0.19-0.98-0.44-1.43-0.73c-0.84-0.57-1.6-1.24-2.27-2c-0.35-0.39-0.67-0.8-0.96-1.23
						c-0.92-1.34-1.56-2.85-1.9-4.44c-0.48-2.65-0.1-5.39,1.08-7.82c1.95-3.71,5.3-6.48,9.31-7.68c4.38-1.13,9.02-0.57,13,1.56
						c0.56,0.33,1.1,0.68,1.61,1.06c0.46,0.32,0.9,0.68,1.29,1.08c-2.09-4.43-7.59-6.78-12.25-7c-5.37-0.17-10.5,2.21-13.84,6.41
						c-3.03,3.9-4.24,8.92-3.33,13.77c0.94,5.28,5.17,9.72,8.51,13.72c5.98,7.15,12.07,14.18,16.54,22.41
						c1.71,3.14,2.57,6.67,2.49,10.24c0,7.22-5.67,13.17-12.88,13.51h-0.04c2.57,0.44,5.22,0.16,7.64-0.83
						c2.95-1.24,5.4-3.45,6.92-6.27c6.1-11.34-3.53-22.85-10.25-31.19c-0.41-0.51-2.55-2.98-3.48-4.07l7.8,5.63
						c1.57,1.15,3.15,2.32,4.71,3.58c2.3,1.83,4.4,3.89,6.26,6.16C389.49,93.98,392.2,99.94,391.72,106.02L391.72,106.02z
						 M364.36,68.38c0.05,0.01,0.01,0.01,0.06,0.01c0.11,0.01,0.22,0.01,0.33,0.01c4.02,0.14,7.7-2.26,9.22-5.99
						c0.1-0.25,0.2-0.5,0.27-0.76c0.37-1.17,0.14-2.45-0.62-3.42c-0.6-0.76-1.49-1.25-2.46-1.34c-0.62-0.06-1.25,0.03-1.84,0.26
						c-0.5,0.17-1.03,0.22-1.56,0.16c-0.79-0.08-1.55-0.36-2.21-0.82c-0.15-0.1-0.29-0.21-0.42-0.32c-1.33-1.33-1.69-3.34-0.91-5.05
						c0.41-0.86,1.08-1.57,1.91-2.03c1.54-0.71,3.26-0.91,4.92-0.57c4.19,0.55,7.5,3.05,10.42,5.92c1.95,1.92,3.66,4.11,5.56,6.06
						c0.19,0.19,0.41,0.4,0.7,0.68v25.55C381.09,79.31,371.34,75.5,364.36,68.38L364.36,68.38z M472.08,106.12
						c0.01,0.05,0.01,0.1,0.02,0.16c0.08,0.97,0.23,1.93,0.44,2.88v0.01c-0.56,1.22-1.18,2.42-1.87,3.57c-0.2,0.34-0.41,0.67-0.62,1
						c-7.29,11.34-20.92,18.97-36.54,18.97s-29.24-7.63-36.53-18.97c-0.21-0.33-0.42-0.67-0.62-1c-0.69-1.16-1.31-2.35-1.87-3.58
						v-0.01c0.21-0.95,0.36-1.91,0.44-2.88c0.01-0.06,0.01-0.11,0.02-0.16c0.29-5.08-0.97-10.13-3.6-14.49l-0.01-0.02V37.88h15.09
						c-1.91-3.23,0,0-1.91-3.23h0.01l0.1,0.18c-3.97-7.26-10.69-12.62-18.66-14.87c-0.05-0.35-0.08-0.7-0.08-1.05
						c0-0.2,0.01-0.39,0.02-0.59c0.83,0.2,1.69,0.25,2.55,0.16c0.79-0.08,1.47-0.11,2.08-0.11c0.17,0,0.35,0,0.52,0.01
						c5.61,0.15,10.93,2.51,14.8,6.57c0.79,0.83,1.51,1.71,2.15,2.65c0.78,1.14,1.46,2.33,2.23,3.47c0.76,1.13,1.6,2.2,2.5,3.22
						c0.63,0.71,1.3,1.38,1.98,2.01c0.34,0.32,0.68,0.62,1.03,0.92l0.1,0.09c0.33,0.28,0.67,0.56,1.02,0.82l0.14,0.11
						c0.34,0.26,0.69,0.52,1.04,0.76l0.14,0.1c0.36,0.25,0.72,0.49,1.08,0.72l0.08,0.05c1.51,0.95,3.1,1.77,4.75,2.44
						c0.08,0.03,0.16,0.07,0.25,0.1c0.3,0.12,0.6,0.23,0.91,0.34c0.75,0.27,1.52,0.52,2.29,0.73c4.08,1.28,8.45,1.28,12.52,0
						c0.77-0.21,1.54-0.46,2.29-0.73c0.3-0.11,0.6-0.22,0.91-0.34c0.08-0.03,0.16-0.07,0.24-0.1c1.65-0.67,3.25-1.49,4.76-2.44
						l0.08-0.05c0.37-0.23,0.73-0.47,1.08-0.72l0.14-0.1c0.35-0.24,0.69-0.5,1.03-0.76l0.14-0.11c0.11-0.09,0.22-0.18,0.32-0.26
						h0.02c0.08-0.07,0.16-0.15,0.25-0.22c0.14-0.12,0.29-0.23,0.43-0.35l0.11-0.09c0.29-0.25,0.58-0.51,0.87-0.78
						c0.05-0.05,0.11-0.09,0.16-0.14l0,0c0.68-0.64,1.35-1.3,1.98-2.01c0.43-0.48,0.83-0.96,1.22-1.46c0.08-0.1,0.17-0.22,0.25-0.32
						c0.33-0.43,0.64-0.87,0.95-1.31c0.03-0.04,0.06-0.09,0.09-0.13s0.06-0.09,0.09-0.14c0.22-0.32,0.42-0.65,0.62-0.98
						c0.5-0.79,0.99-1.59,1.52-2.36c1.26-1.84,2.81-3.48,4.58-4.84c2.63-2.03,5.71-3.41,8.97-4.03c1.12-0.21,2.26-0.33,3.4-0.36
						c0.17-0.01,0.35-0.01,0.52-0.01c0.6,0,1.28,0.04,2.08,0.11c0.85,0.09,1.71,0.04,2.55-0.16c0.02,0.2,0.02,0.39,0.02,0.59
						c0,0.3-0.02,0.59-0.06,0.89c-8.22,2.14-15.2,7.58-19.28,15.03l0.1-0.18h0.01c-1.91,3.22,0,0-1.91,3.23h15.09v53.74l-0.01,0.02
						C473.04,96,471.79,101.05,472.08,106.12L472.08,106.12z M495.33,96.7c0,0.88,0.1,1.75,0.31,2.61c0.19,0.79,0.49,1.55,0.89,2.26
						c0.38,0.68,0.85,1.3,1.41,1.84c0.56,0.54,1.19,1,1.88,1.37c0.72,0.38,1.5,0.66,2.29,0.84c0.19,0.04,0.38,0.09,0.57,0.11
						c0.26,0.03,0.53,0.06,0.8,0.08c0.53,0.05,1.05,0.08,1.58,0.07c0.58,0,1.17-0.07,1.74-0.19c0.52-0.13,1.04-0.3,1.53-0.52
						c0.23-0.1,0.47-0.2,0.71-0.28c-3.03,5.84-8.27,5.11-11.2,4.12c-0.69-0.21-1.36-0.5-2-0.85c-0.09-0.05-0.14-0.08-0.14-0.08
						c-2.27-1.28-4.02-3.29-4.98-5.71c0.39,6.25,5.76,11,12.01,10.62c3.58-0.22,6.84-2.12,8.8-5.13c0.02-0.04,0.05-0.08,0.08-0.11
						l-0.02,0.05l-0.01,0.07c-0.89,7.64-7.63,13.67-15,13.67h-0.2c-5.51-0.03-10.59-2.98-13.34-7.75l-0.02-0.04
						c-1.76-3.05-2.82-6.45-3.1-9.96l-0.01,0.05c-1.45,5.04-0.51,10.47,2.55,14.73c-2.19-1.55-3.98-3.6-5.24-5.97
						c-0.07-0.14-0.15-0.28-0.22-0.42c-0.1-0.2-0.2-0.41-0.29-0.61l-0.07-0.15c-0.5-1.15-0.87-2.34-1.1-3.57l-0.01-0.07
						c-0.05-0.27-0.09-0.54-0.13-0.81l-0.02-0.17c-0.03-0.26-0.06-0.51-0.08-0.78c-0.48-6.09,2.23-12.04,5.41-15.98
						c1.86-2.27,3.96-4.34,6.26-6.16c1.56-1.26,3.13-2.42,4.71-3.58l7.8-5.63c-0.92,1.09-3.06,3.56-3.48,4.07
						c-6.72,8.34-16.34,19.84-10.25,31.19c1.52,2.82,3.96,5.03,6.92,6.27c2.42,0.99,5.06,1.28,7.64,0.83h-0.04
						c-7.21-0.34-12.89-6.29-12.88-13.51c-0.07-3.57,0.79-7.1,2.49-10.24c4.47-8.23,10.57-15.27,16.54-22.41
						c3.34-4,7.58-8.44,8.51-13.72c0.91-4.86-0.3-9.87-3.33-13.77c-3.34-4.2-8.48-6.58-13.84-6.41c-4.67,0.22-10.16,2.57-12.25,7
						c0.4-0.4,0.83-0.76,1.29-1.08c0.53-0.38,1.06-0.74,1.62-1.06c3.98-2.14,8.62-2.69,13-1.56c4.01,1.21,7.37,3.97,9.31,7.68
						c1.18,2.42,1.56,5.16,1.08,7.82c-0.19,0.88-0.47,1.73-0.84,2.54c-0.3,0.66-0.66,1.3-1.06,1.9c-0.29,0.43-0.61,0.84-0.96,1.23
						c-0.67,0.76-1.43,1.43-2.27,2c-0.45,0.3-0.93,0.55-1.43,0.73c-6.83,2.5-8.63-3.25-8.63-3.25c3.14,1.02,6.58-0.08,8.54-2.73
						c2.6-3.8,1.63-8.99-2.16-11.59c-0.2-0.14-0.41-0.27-0.63-0.39c-4.98-2.79-11.3-0.56-15.61,2.5c-2.75,2.14-5.26,4.58-7.47,7.28
						L479.29,56v-9.03c0-3.01,1.92-6.87,2.24-7.49c3.52-6.26,10.14-10.13,17.32-10.13c11.17,0,20.11,8.53,21.59,19.41
						c0.55,5.02-0.34,10.09-2.58,14.62c-3.53,7.5-9.5,13.43-14.78,19.68C499.92,86.81,495.33,91.47,495.33,96.7L495.33,96.7z"/>
				</g>
				<g id="Grupo_4" transform="translate(63.956 132.576)">
					<path id="Trazado_29" class="st7" d="M375.48-38.9v-0.53c0-0.82-0.67-1.49-1.49-1.49c0,0,0,0,0,0v4.55l5.45-1.76
						c0.18,1.13,0.72,2.18,1.54,2.98c0.64,0.59,1.12,1.34,1.39,2.18l-4,1.73c-0.2,0.62-0.3,1.26-0.3,1.91c0,0.65,0.1,1.29,0.3,1.91
						c-1.02-0.16-1.98-0.57-2.8-1.21v-1.4c0-0.82-0.67-1.49-1.49-1.49c0,0,0,0,0,0v4.56c1.34,0.96,2.94,1.51,4.59,1.57
						c0.77,0.01,1.38,0.64,1.38,1.41c0.22,0.01,0.42-0.16,0.43-0.38c0-0.01,0-0.02,0-0.02c0-0.39-0.06-0.78-0.17-1.16
						c-0.1-0.37-0.15-0.76-0.15-1.15c0-0.64,0.14-1.28,0.42-1.86c0.23-0.08,0.47-0.14,0.72-0.18c0.35-0.07,0.71-0.1,1.07-0.1
						c0.53,0,1.05,0.07,1.56,0.21c0.33,0.09,0.66,0.15,1,0.17c0.17,0.02,0.34,0.02,0.51,0.02c0.61,0,1.21-0.09,1.79-0.28
						c0,0,0.22-0.08,0.27,0.09s-0.14,0.32-0.14,0.32c-0.48,0.4-1.06,0.65-1.68,0.71c-0.27,0.03-0.55,0.04-0.82,0.04
						c0.59,1.38,1.04,2.54,1.11,2.71c1.24,0.41,2.58,0.41,3.82,0c-0.16,1.02-0.57,1.98-1.21,2.8h-1.4c-0.82,0-1.49,0.67-1.49,1.49
						h4.56c0.97-1.34,1.51-2.94,1.57-4.59c0.02-0.77,0.64-1.38,1.41-1.38c0.01-0.22-0.16-0.42-0.38-0.43c-0.01,0-0.02,0-0.02,0
						c-0.39,0-0.78,0.06-1.16,0.17c-1,0.27-2.07,0.17-3.01-0.27c-0.34-1.09-0.37-2.25-0.07-3.34l0,0c0.02-0.08,0.04-0.16,0.04-0.24
						c2.54,0.63,5.12-0.92,5.75-3.46c0.09-0.37,0.14-0.76,0.14-1.15c0-0.73-0.16-1.44-0.49-2.09l-0.41-0.88
						c-1.34-2.55-1.2-5.63,0.37-8.04h0.02l0.14-0.06c0.28-0.12,0.54-0.26,0.78-0.43c0.56-0.47,0.91-1.14,0.99-1.87
						c0.01-0.08,0.01-0.16,0.02-0.24c0-0.05,0-0.1,0-0.15c0-0.16-0.02-0.32-0.05-0.48c-0.11,0.07-0.23,0.14-0.33,0.22
						c-0.18,0.12-0.35,0.24-0.51,0.38s-0.33,0.27-0.48,0.41s-0.31,0.29-0.45,0.45s-0.28,0.31-0.42,0.47l-0.02,0.03l-0.11,0.14l0,0
						l-0.05,0.06l-0.09,0.11l-0.13,0.18L393.27-47c-1.89,2.75-2.11,6.32-0.56,9.27l0.4,0.85c0.26,0.51,0.39,1.08,0.39,1.65
						c0,2.05-1.67,3.72-3.72,3.72h-0.13c-1-0.04-1.92-0.52-2.54-1.3c-0.12-0.15-0.22-0.29-0.31-0.42c-0.74-1.04-1.13-2.29-1.13-3.56
						l0.07,0.09v-0.02c0.41,0.43,0.91,0.76,1.46,0.98c0.05,0.03,0.11,0.01,0.13-0.04c0.02-0.03,0.01-0.07,0-0.1
						c-0.26-0.74-0.31-1.54-0.16-2.31c0.09-0.45,0.23-0.89,0.42-1.31c0,0.28,0.09,0.54,0.25,0.76c0.03,0.05,0.09,0.06,0.14,0.03
						c0.02-0.02,0.04-0.04,0.04-0.07c0.12-0.72,0.36-1.42,0.7-2.07c0.15-0.27,0.21-0.38,0.22-0.4c0.12-0.22,0.24-0.42,0.37-0.63
						c0.14-0.21,0.27-0.44,0.39-0.67l0,0l0.02-0.05l0.03-0.09l0.03-0.07l0.04-0.08l0.03-0.08l0.04-0.08l0.03-0.08l0.03-0.09
						l0.03-0.08l0.03-0.09l0.03-0.08l0.03-0.09l0.02-0.08l0.03-0.09l0.02-0.08l0.02-0.09l0.02-0.08l0.02-0.09l0.02-0.08l0.02-0.09
						l0.02-0.08l0.01-0.09l0.01-0.08l0.01-0.09l0.01-0.08l0.01-0.1l0.01-0.08l0.01-0.11l0.01-0.07v-0.12v-0.06v-0.18
						c0-1.87-0.85-3.64-2.32-4.81c0.11,0.03,0.23,0.05,0.34,0.08c0.05,0,0.1-0.04,0.11-0.09c0-0.03-0.01-0.05-0.03-0.08
						c-1.26-1-2.86-1.47-4.47-1.29c-0.11,0.01-0.22,0.03-0.33,0.05c-0.11,0.02-0.2,0.1-0.24,0.2l-0.2,0.65l-0.17,0.02
						c-0.49,0.09-0.92,0.38-1.19,0.81l-1.7,0.7c-0.15,0.05-0.24,0.2-0.23,0.36c0.01,0.08,0.04,0.16,0.1,0.22
						c0.02,0.26,0.2,1.3,0.63,1.36c0,0,0.35-0.1,0.53-0.16l0,0h0.01l0.08-0.02l0,0c0.48-0.12,1.11-0.22,1.28,0.07
						c0,0,0.37,0.81-0.11,1c-0.22,0.05-0.45,0.08-0.67,0.09l-0.42,0.03l-0.25,0.02c0,0-0.26,0.79,0.23,1.03
						c0.39-0.12,0.8-0.18,1.21-0.18c0.08,0,0.43,0,0.52-0.01s0.17-0.02,0.26-0.03c0.64-0.07,1.26-0.25,1.83-0.53
						c-0.33,0.43-0.79,0.75-1.32,0.89c-0.01,0-0.43,0.14-0.75,0.22c-0.13,0.03-0.25,0.08-0.38,0.13c-0.81,0.35-1.53,0.87-2.1,1.54
						l-5.22-2.46l0.08-0.06v-0.96c0-0.61-0.37-1.15-0.93-1.38c-0.17-0.09-0.37-0.14-0.56-0.14v3.55l4.38,3.15l1.73-0.46
						c0.13-0.06,0.29,0,0.35,0.13c0.06,0.12,0.01,0.27-0.11,0.34L375.48-38.9z"/>
					<path id="Trazado_30" class="st7" d="M353.16-24.84c-1.24,0.41-2.58,0.41-3.82,0c0.16,1.02,0.57,1.98,1.21,2.8h1.4
						c0.82,0,1.49,0.67,1.49,1.49v0h-4.56c-0.96-1.34-1.51-2.94-1.57-4.59c-0.02-0.77-0.64-1.38-1.41-1.38
						c-0.01-0.22,0.16-0.42,0.38-0.43c0.01,0,0.01,0,0.02,0c0.39,0,0.78,0.06,1.16,0.17c1,0.27,2.07,0.18,3.01-0.27
						c0.34-1.08,0.37-2.24,0.07-3.34v-0.01c-0.02-0.08-0.04-0.16-0.04-0.23c-2.55,0.63-5.12-0.93-5.75-3.48
						c-0.09-0.37-0.14-0.75-0.14-1.13c0-0.73,0.16-1.44,0.48-2.09l0.41-0.88c1.34-2.55,1.2-5.63-0.37-8.04h-0.01l-0.14-0.06
						c-0.27-0.12-0.54-0.27-0.78-0.44c-0.56-0.47-0.92-1.14-0.99-1.87c-0.01-0.08-0.01-0.16-0.02-0.24v-0.15
						c0-0.16,0.02-0.32,0.05-0.48c0.11,0.07,0.23,0.14,0.33,0.22c0.18,0.12,0.35,0.24,0.51,0.38s0.33,0.27,0.48,0.41
						s0.31,0.29,0.45,0.45s0.28,0.31,0.42,0.47l0.02,0.02l0.11,0.14l0,0l0.04,0.06l0.09,0.12c0.04,0.06,0.09,0.12,0.13,0.18
						l0.03,0.05c1.9,2.75,2.11,6.32,0.56,9.27l-0.4,0.85c-0.91,1.84-0.15,4.07,1.69,4.98c0.51,0.25,1.07,0.38,1.64,0.38h0.13
						c0.99-0.05,1.92-0.52,2.54-1.3c0.12-0.15,0.22-0.29,0.31-0.42c0.74-1.04,1.13-2.29,1.13-3.57l-0.07,0.09v-0.01
						c-0.41,0.42-0.9,0.76-1.45,0.97c-0.05,0.03-0.11,0.01-0.13-0.04c-0.02-0.03-0.01-0.07,0-0.1c0.26-0.74,0.31-1.54,0.16-2.31
						c-0.09-0.45-0.23-0.89-0.42-1.31c0,0.27-0.09,0.54-0.25,0.76c-0.03,0.05-0.09,0.06-0.14,0.03c-0.02-0.01-0.04-0.04-0.04-0.06
						c-0.12-0.72-0.36-1.42-0.7-2.07c-0.15-0.27-0.21-0.37-0.22-0.4c-0.12-0.21-0.24-0.42-0.37-0.63c-0.14-0.21-0.27-0.43-0.39-0.66
						l0,0l-0.02-0.05l-0.02-0.09l-0.03-0.07l-0.04-0.09l-0.03-0.07l-0.04-0.09l-0.03-0.08l-0.03-0.09l-0.03-0.08l-0.03-0.09
						l-0.03-0.08l-0.03-0.09l-0.02-0.08l-0.03-0.09l-0.02-0.08l-0.02-0.09l-0.02-0.08L348.93-44l-0.02-0.08l-0.02-0.09l-0.02-0.08
						l-0.01-0.1l-0.01-0.08l-0.01-0.09l-0.01-0.08l-0.01-0.1l-0.01-0.08l-0.01-0.11l-0.01-0.07v-0.12v-0.06v-0.18
						c0-1.87,0.85-3.64,2.32-4.81c-0.11,0.02-0.23,0.05-0.34,0.08c-0.05,0-0.1-0.04-0.11-0.09c0-0.03,0.01-0.05,0.03-0.08
						c1.26-1,2.86-1.47,4.47-1.29c0.11,0.01,0.22,0.03,0.33,0.05c0.11,0.02,0.2,0.1,0.23,0.2l0.2,0.65l0.17,0.02
						c0.49,0.09,0.92,0.38,1.19,0.81l1.7,0.7c0.15,0.06,0.24,0.2,0.23,0.36c0,0.08-0.04,0.16-0.1,0.22c-0.02,0.26-0.2,1.3-0.63,1.36
						c0,0-0.35-0.1-0.53-0.16l0,0h-0.01l-0.07-0.02l0,0c-0.48-0.13-1.11-0.22-1.28,0.07c0,0-0.37,0.81,0.11,1
						c0.22,0.04,0.44,0.07,0.67,0.09l0.42,0.03l0.25,0.02c0,0,0.26,0.79-0.23,1.03c-0.39-0.12-0.8-0.19-1.21-0.19
						c-0.08,0-0.43,0-0.52,0s-0.17-0.02-0.25-0.03c-0.64-0.07-1.26-0.25-1.83-0.53c0.33,0.43,0.79,0.75,1.32,0.89
						c0.01,0.01,0.43,0.14,0.75,0.23c0.13,0.04,0.25,0.08,0.38,0.13c0.81,0.34,1.52,0.87,2.09,1.54l5.22-2.46l-0.08-0.06v-0.96
						c0-0.61,0.37-1.15,0.93-1.38c0.17-0.09,0.36-0.14,0.56-0.14v3.54l-4.34,3.13l-1.86-0.5c-0.13-0.06-0.29,0-0.35,0.13
						c-0.06,0.12-0.01,0.27,0.11,0.34l4.96,2.51v-0.53c0-0.82,0.66-1.49,1.49-1.49c0,0,0,0,0,0v4.55l-5.45-1.76
						c-0.18,1.14-0.72,2.18-1.54,2.99c-0.64,0.59-1.12,1.34-1.39,2.17c1.48,0.64,3.76,1.62,4,1.73c0.41,1.24,0.41,2.58,0,3.82
						c1.02-0.16,1.98-0.58,2.8-1.21v-1.4c0-0.82,0.67-1.49,1.49-1.49l0,0v4.56c-1.34,0.96-2.93,1.51-4.58,1.57
						c-0.77,0.02-1.38,0.64-1.38,1.41c-0.22,0.01-0.42-0.16-0.43-0.38c0-0.01,0-0.02,0-0.03c0-0.39,0.05-0.78,0.17-1.16
						c0.27-1,0.17-2.07-0.27-3.01c-0.58-0.18-1.18-0.28-1.78-0.28c-0.22,0-0.45,0.02-0.67,0.05l0.35-2.21
						c0.03-0.13-0.05-0.26-0.17-0.3c-0.13-0.03-0.26,0.03-0.31,0.15L353.16-24.84z"/>
				</g>
				<path id="Trazado_31" class="st7" d="M448.91,56.26c-1.95-3.69-5.72-6.05-9.89-6.2c-3.33-1.79-7.33-1.79-10.66,0
					c-4.17,0.15-7.94,2.51-9.89,6.2c-4.43,2.33-6.14,7.8-3.81,12.23c0.53,1,1.24,1.9,2.1,2.64c1.46,3.69,4.76,6.33,8.68,6.97
					c3.54,0.59,6.16,3.61,6.25,7.2l0.02,19.67c-0.12,2.89-2.38,5.24-5.26,5.48h-1.16c-0.86,0-1.56,0.7-1.56,1.56c0,0,0,0,0,0h11.96
					l0,0h7.99c0-0.86-0.7-1.56-1.56-1.56h-1.16c-2.91-0.19-5.2-2.57-5.27-5.49l0.01-19.67c0.06-3.42,2.45-6.35,5.79-7.11l0.29-0.06
					c4-0.57,7.38-3.24,8.87-7c3.79-3.27,4.2-9,0.93-12.78C450.81,57.5,449.92,56.79,448.91,56.26L448.91,56.26z M448.62,68.82
					l-0.57,0.49l-0.28,0.7c-0.92,2.34-2.88,4.13-5.3,4.83v0.01c-0.85,0.18-1.69,0.44-2.5,0.77l-0.05,0.03
					c-0.14,0.14-0.28,0.3-0.43,0.44l-0.06,0.05c-0.13,0.12-0.27,0.23-0.41,0.35c-0.17,0.13-0.34,0.25-0.51,0.37
					c-2.9,1.98-6.72,1.98-9.62,0c-0.17-0.11-0.34-0.24-0.51-0.37c-0.14-0.11-0.28-0.23-0.42-0.35l-0.06-0.05
					c-0.15-0.13-0.28-0.29-0.42-0.43l-0.07-0.04c-0.81-0.33-1.65-0.59-2.5-0.77v-0.01c-2.42-0.7-4.38-2.48-5.3-4.83l-0.28-0.7
					l-0.57-0.49c-2.5-2.16-2.78-5.95-0.61-8.45c0.49-0.57,1.09-1.04,1.75-1.39l0.84-0.44l0.44-0.84c1.44-2.71,4.21-4.45,7.28-4.57
					l0.72-0.03l0.63-0.34c2.42-1.3,5.33-1.3,7.75,0l0.63,0.34l0.72,0.03c3.07,0.11,5.84,1.85,7.28,4.57l0.44,0.84l0.84,0.44
					c2.93,1.54,4.06,5.16,2.52,8.09c-0.35,0.66-0.82,1.26-1.39,1.75L448.62,68.82z"/>
			</g>
			<path id="Trazado_32" class="st7" d="M452.94,44.59c-2.13,1.2-4.39,2.15-6.74,2.83h19.96V90.7c0,2.51-0.29,5-0.86,7.44
				c-0.65,2.76-1.66,5.42-3,7.92c-0.16,0.29-0.31,0.58-0.48,0.86c-8.96,15.52-28.82,20.84-44.34,11.88
				c-4.93-2.85-9.03-6.94-11.88-11.88c-0.17-0.28-0.32-0.57-0.48-0.86c-1.34-2.5-2.35-5.16-3-7.92c-0.57-2.44-0.86-4.94-0.86-7.44
				V47.42h20.31c-2.4-0.67-4.72-1.62-6.91-2.83h-16.23V90.7c0,2.72,0.31,5.44,0.93,8.09c0.71,3,1.81,5.9,3.27,8.62
				c0.17,0.31,0.34,0.62,0.52,0.93c9.75,16.88,31.33,22.65,48.21,12.91c5.36-3.1,9.81-7.55,12.91-12.91
				c0.18-0.31,0.35-0.62,0.52-0.93c2.76-5.14,4.21-10.88,4.2-16.71V44.59H452.94z"/>
			<path id="Trazado_33" class="st7" d="M474.41,45.3l-0.71-0.71l-1.36,1.36l-1.36-1.36l-0.71,0.71l1.36,1.36l-1.36,1.36l0.71,0.71
				l1.36-1.36l1.36,1.36l0.71-0.71l-1.36-1.36L474.41,45.3z"/>
			<path id="Trazado_34" class="st7" d="M396.95,45.3l-0.71-0.71l-1.36,1.36l-1.36-1.36l-0.71,0.71l1.36,1.36l-1.36,1.36l0.71,0.71
				l1.36-1.36l1.36,1.36l0.71-0.71l-1.36-1.36L396.95,45.3z"/>
			<path id="Trazado_35" class="st7" d="M474.41,78.46l-0.71-0.71l-1.36,1.36l-1.36-1.36l-0.71,0.71l1.36,1.36l-1.36,1.36l0.71,0.71
				l1.36-1.36l1.36,1.36l0.71-0.71l-1.36-1.36L474.41,78.46z"/>
			<path id="Trazado_36" class="st7" d="M396.95,78.46l-0.71-0.71l-1.36,1.36l-1.36-1.36l-0.71,0.71l1.36,1.36l-1.36,1.36l0.71,0.71
				l1.36-1.36l1.36,1.36l0.71-0.71l-1.36-1.36L396.95,78.46z"/>
			<path id="Trazado_37" class="st7" d="M404.7,112.92l-0.71-0.71l-1.36,1.36l-1.36-1.36l-0.71,0.71l1.36,1.36l-1.36,1.36l0.71,0.71
				l1.36-1.36l1.36,1.36l0.71-0.71l-1.36-1.36L404.7,112.92z"/>
			<path id="Trazado_38" class="st7" d="M466.84,112.92l-0.71-0.71l-1.36,1.36l-1.36-1.36l-0.71,0.71l1.36,1.36l-1.36,1.36
				l0.71,0.71l1.36-1.36l1.36,1.36l0.71-0.71l-1.36-1.36L466.84,112.92z"/>
			<path id="Trazado_39" class="st7" d="M435.72,127.99l-0.71-0.71l-1.36,1.36l-1.36-1.36l-0.71,0.71l1.36,1.36l-1.36,1.36
				l0.71,0.71l1.36-1.36l1.36,1.36l0.71-0.71l-1.36-1.36L435.72,127.99z"/>
		</g>
	</g>
	<path id="Trazado_40" class="st7" d="M-93.03-11.2c-0.05-0.01-0.1-0.03-0.15-0.06h-22.69c-0.5,0.13-1.01,0.22-1.49,0.39
		c-2.42,0.85-4.04,3.13-4.05,5.69c-0.01,7.13-0.01,14.26,0,21.39c-0.02,3.38,2.7,6.14,6.08,6.16c0.03,0,0.05,0,0.08,0
		c0.83,0.01,1.67,0,2.5,0c6.26,0,12.53,0,18.79,0c2.27,0.08,4.39-1.12,5.49-3.09c0.38-0.66,0.64-1.38,0.75-2.13
		c0.02-0.08,0.04-0.16,0.07-0.24V-5.71c-0.09-0.49-0.22-0.98-0.38-1.46C-88.78-9.36-90.73-10.93-93.03-11.2z M-104.6-6.19
		c3.16,0,5.72,2.56,5.73,5.72s-2.56,5.72-5.72,5.73c-3.16,0-5.72-2.55-5.73-5.71C-110.32-3.62-107.76-6.18-104.6-6.19L-104.6-6.19z
		 M-95.49,15.61c-0.1,1.27-1.13,2.27-2.4,2.34c-0.75,0.04-1.49,0.02-2.24,0.02c-1.49,0-2.99,0-4.48,0h-3.18c-1.06,0-2.12,0-3.18,0
		c-1.27,0.09-2.42-0.78-2.68-2.03c-0.12-0.76-0.15-1.53-0.09-2.3c0.09-2.88,2.29-5.25,5.15-5.56c0.21-0.02,0.42-0.03,0.62-0.03
		c2.35,0,4.7-0.03,7.05,0.02c2.81,0.14,5.11,2.3,5.41,5.1C-95.43,13.99-95.43,14.8-95.49,15.61L-95.49,15.61z"/>
	<path id="Trazado_91_1_" class="st6" d="M-59.2-12.43c0.51,1.21,1.3,2.28,2.32,3.11c1.15,0.82,2.47,1.37,3.86,1.59
		c1.35,0.16,2.62,0.69,3.68,1.53c0.65,0.62,1.16,1.38,1.5,2.21l-3.7,3.7C-51.73-0.11-51.98,0-52.24,0h-7.74
		c-0.27,0-0.52-0.11-0.71-0.29l-3.2-3.2c-1.17-1.17-1.17-3.07,0-4.24c0,0,0,0,0,0L-59.2-12.43z M-57.67-13.96l9.33-9.33
		c1.17-1.17,3.07-1.17,4.24,0c0,0,0,0,0,0l5.66,5.66c1.17,1.17,1.17,3.07,0,4.24c0,0,0,0,0,0l-7.9,7.9
		c-0.42-0.82-0.97-1.56-1.64-2.19c-1.32-1.08-2.91-1.77-4.6-2c-1.1-0.16-2.15-0.58-3.07-1.22C-56.6-11.71-57.3-12.77-57.67-13.96
		L-57.67-13.96z"/>
	<path id="Trazado_92" class="st3" d="M-19.72-24.17c-6.4,0-11.59,5.19-11.59,11.59s5.19,11.59,11.59,11.59S-8.13-6.18-8.13-12.58
		l0,0C-8.13-18.98-13.32-24.17-19.72-24.17z M-13.76-11.41h-4.79v4.79h-2.34v-4.79h-4.79v-2.34h4.79v-4.79h2.34v4.79h4.79V-11.41z"
		/>
	<g>
		<path id="Trazado_93" class="st1" d="M15.22-23.91c-0.34-0.34-0.88-0.34-1.22-0.01c0,0,0,0-0.01,0.01L7.37-17.3
			c-0.1,0.1-0.18,0.23-0.22,0.37l-1.08,3.61c-0.09,0.31-0.01,0.64,0.22,0.86c0.16,0.16,0.38,0.26,0.61,0.26
			c0.08,0,0.17-0.01,0.25-0.03l3.61-1.08c0.14-0.04,0.26-0.12,0.37-0.22l6.61-6.61c0.34-0.34,0.34-0.89,0-1.23c0,0,0,0,0,0
			L15.22-23.91z"/>
		<path id="Trazado_94" class="st1" d="M17.13-16.04c-0.48,0-0.87,0.39-0.87,0.87c0,0,0,0,0,0v5.81c0,0.8-0.65,1.45-1.45,1.45H3.19
			c-0.8,0-1.45-0.65-1.45-1.45v-11.61c0-0.8,0.65-1.45,1.45-1.45H9c0.48,0,0.87-0.39,0.87-0.87c0-0.48-0.39-0.87-0.87-0.87H3.19
			C1.43-24.17,0-22.74,0-20.98v11.61C0-7.6,1.43-6.17,3.19-6.17h11.61C16.57-6.17,18-7.6,18-9.37v-5.81
			C18-15.65,17.61-16.04,17.13-16.04C17.13-16.04,17.13-16.04,17.13-16.04z"/>
	</g>
	<g>
		<path id="Trazado_95" class="st1" d="M37.86-20.93c-0.11-0.42-0.19-0.66-0.19-0.66c-0.12-0.44-0.43-0.44-0.89-0.51l-2.49-0.31
			c-0.31-0.05-0.31-0.05-0.43-0.32c-0.41-0.92-0.53-1.45-0.98-1.45h-4.83c-0.44,0-0.57,0.53-0.97,1.46
			c-0.12,0.26-0.12,0.26-0.43,0.32l-2.49,0.31c-0.46,0.07-0.78,0.12-0.9,0.55c0,0-0.06,0.19-0.17,0.61c-0.15,0.56-0.21,0.5,0.3,0.5
			h14.17C38.07-20.43,38.02-20.37,37.86-20.93z"/>
		<path id="Trazado_96" class="st1" d="M36.26-18.93H24.69c-0.78,0-0.82,0.1-0.77,0.69L24.8-6.87c0.07,0.58,0.13,0.69,0.82,0.69
			h9.71c0.69,0,0.75-0.12,0.82-0.69l0.88-11.37C37.07-18.83,37.03-18.93,36.26-18.93z"/>
	</g>
	<path id="Trazado_103" class="st1" d="M9.6,0C4.3,0,0,4.3,0,9.6s4.3,9.6,9.6,9.6s9.6-4.3,9.6-9.6l0,0C19.2,4.3,14.9,0,9.6,0z
		 M10.5,3.47c0.58-0.09,1.12,0.31,1.2,0.89c0.01,0.09,0.02,0.18,0,0.28c-0.03,0.85-0.74,1.52-1.59,1.5c-0.03,0-0.06,0-0.09-0.01
		c-0.89,0-1.31-0.45-1.28-1.18C8.8,4.07,9.55,3.4,10.43,3.46C10.45,3.46,10.48,3.46,10.5,3.47z M8.1,15.35
		c-0.64,0-1.11-0.39-0.66-2.09l0.73-3.02c0.13-0.48,0.15-0.68,0-0.68c-0.54,0.13-1.05,0.36-1.51,0.66L6.34,9.69
		c1.15-1.05,2.58-1.76,4.11-2.06c0.64,0,0.75,0.76,0.43,1.92l-0.84,3.18c-0.15,0.56-0.09,0.76,0.06,0.76
		c0.53-0.12,1.03-0.36,1.44-0.72l0.36,0.49C10.9,14.36,9.56,15.09,8.1,15.35z"/>
</g>
</svg>
