<svg id="Capa_1" data-name="Capa 1" xmlns="http://www.w3.org/2000/svg" viewBox="0 0 20.13 15.67"><defs><style>.cls-1{fill:#2756b1;}</style></defs><g id="Layer_1" data-name="Layer 1"><path id="Trazado_62" data-name="Trazado 62" class="cls-1" d="M17.25,8.89v6a.8.8,0,0,1-.8.8H11.66V10.88H8.47v4.79H3.68a.8.8,0,0,1-.8-.8v-6a.08.08,0,0,1,0,0s0,0,0,0l7.17-5.91L17.24,8.8S17.25,8.87,17.25,8.89ZM20,8,19.26,9a.45.45,0,0,1-.26.14h0A.39.39,0,0,1,18.7,9L10.07,1.8,1.44,9a.53.53,0,0,1-.3.09A.4.4,0,0,1,.88,9L.11,8A.39.39,0,0,1,0,7.74a.35.35,0,0,1,.14-.27L9.13,0A1.56,1.56,0,0,1,11,0l3,2.54V.11a.39.39,0,0,1,.37-.4h2.42a.39.39,0,0,1,.4.37V5.2L20,7.47a.4.4,0,0,1,.14.27A.43.43,0,0,1,20,8Z"/></g></svg>