<svg id="Capa_1" data-name="Capa 1" xmlns="http://www.w3.org/2000/svg" viewBox="0 0 80 80.02"><defs><style>.cls-1{fill:#50a583;}.cls-2{fill:#fff;}</style></defs><g id="Layer_1" data-name="Layer 1"><path id="Trazado_44" data-name="Trazado 44" class="cls-1" d="M0,67.08H0A12.94,12.94,0,0,0,12.94,80H67.06A12.94,12.94,0,0,0,80,67.08h0V13A12.94,12.94,0,0,0,67.06,0h0A67.06,67.06,0,0,0,0,67.08Z"/><g id="Grupo_9" data-name="Grupo 9"><path id="Trazado_45" data-name="Trazado 45" class="cls-2" d="M67,69H30.2c0-.29.06-.58.06-.86V20.89c0-.29,0-.58-.06-.86H67c0,.29-.06.58-.06.86V68.16C67,68.45,67,68.73,67,69ZM63.92,23.13H33.31V65.91H45.63v-9h6v9H63.92V23.13Z"/><path id="Trazado_46" data-name="Trazado 46" class="cls-2" d="M42.34,35.21H36.4c0-1.82,0-3.59,0-5.36a.81.81,0,0,1,.56-.57c1.77-.05,3.53,0,5.35,0Z"/><path id="Trazado_47" data-name="Trazado 47" class="cls-2" d="M54.9,29.25c1.79,0,3.53,0,5.26,0a.89.89,0,0,1,.61.62c0,1.73,0,3.47,0,5.28H54.9Z"/><path id="Trazado_48" data-name="Trazado 48" class="cls-2" d="M45.7,29.3h5.78v5.89H45.7Z"/><path id="Trazado_49" data-name="Trazado 49" class="cls-2" d="M42.36,38.55v5.8H36.47v-5.8Z"/><path id="Trazado_50" data-name="Trazado 50" class="cls-2" d="M60.71,44.37H54.86V38.55h5.85Z"/><path id="Trazado_51" data-name="Trazado 51" class="cls-2" d="M42.31,53.63c-1.79,0-3.49,0-5.19,0-.24,0-.68-.36-.69-.56,0-1.76,0-3.53,0-5.33h5.9Z"/><path id="Trazado_52" data-name="Trazado 52" class="cls-2" d="M54.87,47.7h5.84v5.87H54.87Z"/><path id="Trazado_53" data-name="Trazado 53" class="cls-2" d="M51.5,44.38H45.7V38.56h5.8Z"/><path id="Trazado_54" data-name="Trazado 54" class="cls-2" d="M45.68,53.54V47.75h5.81v5.79Z"/></g></g></svg>