<svg id="Capa_1" data-name="Capa 1" xmlns="http://www.w3.org/2000/svg" viewBox="0 0 327.61 311.34"><defs><style>.cls-1{fill:#6a7379;}</style></defs><g id="Layer_1" data-name="Layer 1"><g id="Grupo_7" data-name="Grupo 7"><g id="Grupo_1" data-name="Grupo 1"><path id="Trazado_1" data-name="Trazado 1" class="cls-1" d="M118.75,269.48a1.58,1.58,0,0,1-1.14,1.71,21.13,21.13,0,0,1-6.44,1.14q-8.16,0-11-5.88a23,23,0,0,1-15.63,5.88q-11,0-18-6.78t-7.06-17.39q0-10.6,7.06-17.39t18-6.77a22.27,22.27,0,0,1,13.36,4.17v-1.33A1.25,1.25,0,0,1,99,225.42a1.09,1.09,0,0,1,.36,0h8.72a1.25,1.25,0,0,1,1.42,1.07,1.09,1.09,0,0,1,0,.36v31.84a3.54,3.54,0,0,0,.9,2.56,3.17,3.17,0,0,0,2.42.95,18.85,18.85,0,0,0,3.51-.38q1.51-.29,1.71,1.14Zm-34.11-6.64a12.25,12.25,0,0,0,9.57-4.12,17,17,0,0,0,0-21.13,12.25,12.25,0,0,0-9.57-4.12,12.83,12.83,0,0,0-9.81,4.12,16.45,16.45,0,0,0,0,21.13,12.73,12.73,0,0,0,9.81,4.12Z"/><path id="Trazado_2" data-name="Trazado 2" class="cls-1" d="M138.74,272.32q-6,0-9.62-2.89a9.28,9.28,0,0,1-3.65-7.63V205.28a1.25,1.25,0,0,1,1.07-1.42,1.09,1.09,0,0,1,.36,0h8.72a1.25,1.25,0,0,1,1.42,1.07,1.09,1.09,0,0,1,0,.36v53.4a3.54,3.54,0,0,0,.9,2.56,3.17,3.17,0,0,0,2.42.95,18.85,18.85,0,0,0,3.51-.38q1.51-.29,1.71,1.14l.75,6.54a1.47,1.47,0,0,1-1.13,1.71A21.85,21.85,0,0,1,138.74,272.32Z"/><path id="Trazado_3" data-name="Trazado 3" class="cls-1" d="M158.83,215.47a7.24,7.24,0,0,1-5.12-1.94,6.32,6.32,0,0,1-.46-8.92c.14-.16.3-.31.46-.46a7.65,7.65,0,0,1,10.19,0,6.22,6.22,0,0,1,.6,8.78,6.79,6.79,0,0,1-.6.6A7.31,7.31,0,0,1,158.83,215.47Zm7.49,56.85q-6,0-9.62-2.89a9.27,9.27,0,0,1-3.65-7.63v-35a1.25,1.25,0,0,1,1.07-1.42,1,1,0,0,1,.35,0h8.72a1.25,1.25,0,0,1,1.42,1.07,1.09,1.09,0,0,1,0,.36v31.84a3.54,3.54,0,0,0,.9,2.56,3.16,3.16,0,0,0,2.41.95,18.85,18.85,0,0,0,3.51-.38c1-.19,1.57.19,1.7,1.14l.76,6.54a1.47,1.47,0,0,1-1.14,1.71,21.6,21.6,0,0,1-6.43,1.11Z"/><path id="Trazado_4" data-name="Trazado 4" class="cls-1" d="M199.86,272.32q-9.66,0-15.58-4a15.55,15.55,0,0,1-7-11.08c-.13-1,.35-1.52,1.42-1.52l8,.1a1.51,1.51,0,0,1,1.52,1.23q2.08,6.35,11.65,6.35A13.63,13.63,0,0,0,206.5,262q2.55-1.42,2.56-3.7,0-2.74-3.12-4a30.06,30.06,0,0,0-7.53-1.85c-2.93-.38-5.87-.88-8.81-1.52a14.88,14.88,0,0,1-7.53-4q-3.13-3.08-3.13-8.48a12.29,12.29,0,0,1,5.5-10.42q5.49-4,14.5-4,8.34,0,14,3.69a13.89,13.89,0,0,1,6.63,9.76c.13,1-.35,1.51-1.42,1.51h-8c-.82,0-1.33-.28-1.52-.85a7.46,7.46,0,0,0-3.55-4.12,12.13,12.13,0,0,0-6.2-1.57,12.49,12.49,0,0,0-6.21,1.33,3.94,3.94,0,0,0-2.32,3.5,4.39,4.39,0,0,0,2.23,3.88,12.78,12.78,0,0,0,5.49,1.8c2.18.25,4.57.65,7.16,1.18a63.44,63.44,0,0,1,7.16,1.9,11.36,11.36,0,0,1,5.5,4,12.06,12.06,0,0,1,2.23,7.48,12.64,12.64,0,0,1-5.59,10.71Q208.94,272.33,199.86,272.32Z"/><path id="Trazado_5" data-name="Trazado 5" class="cls-1" d="M251.12,272.32q-11.37,0-18.28-6.64t-6.92-17.53q0-10.89,6.92-17.53T251.12,224q9,0,15.21,4.45a18.75,18.75,0,0,1,7.72,11.85c.19,1-.22,1.51-1.23,1.51h-9a1.51,1.51,0,0,1-1.52-1.23,9.16,9.16,0,0,0-4.08-4.88,13.52,13.52,0,0,0-7.11-1.85,13,13,0,0,0-9.9,3.93q-3.75,3.93-3.74,10.38c0,4.3,1.25,7.75,3.74,10.38a13,13,0,0,0,9.9,3.93,13.36,13.36,0,0,0,7.11-1.85,9.12,9.12,0,0,0,4.08-4.88,1.51,1.51,0,0,1,1.52-1.23h9c1,0,1.42.51,1.23,1.52a18.76,18.76,0,0,1-7.72,11.84Q260.12,272.33,251.12,272.32Z"/><path id="Trazado_6" data-name="Trazado 6" class="cls-1" d="M323.47,265.69q-7,6.63-18.33,6.64t-18.33-6.64q-7-6.63-7-17.53t7-17.53q7-6.63,18.33-6.63t18.33,6.63q7,6.63,7,17.53T323.47,265.69Zm-28.29-7.2a14.68,14.68,0,0,0,19.9,0q3.78-3.88,3.79-10.33t-3.79-10.33a14.68,14.68,0,0,0-19.9,0q-3.8,3.88-3.79,10.33t3.79,10.33Z"/><path id="Trazado_7" data-name="Trazado 7" class="cls-1" d="M50.34,204.57A1.42,1.42,0,0,1,51.76,206v40.94q0,11.94-7,18.67t-19.43,6.73q-10.62,0-17.48-5.59A21.14,21.14,0,0,1,0,251.86c-.12-1,.35-1.52,1.42-1.52h9.29a1.33,1.33,0,0,1,1.42,1.25v.08a11,11,0,0,0,4.5,7.29,15.52,15.52,0,0,0,9.43,2.75,12.42,12.42,0,0,0,9.76-4.17q3.7-4.17,3.69-11V218.1c0-3.79-4.05-4.62-6.53-4.77h-.74a1.15,1.15,0,0,1-1.15-1.15h0v-6.45a1.16,1.16,0,0,1,1.15-1.16Z"/></g><g id="Grupo_2" data-name="Grupo 2"><path id="Trazado_8" data-name="Trazado 8" class="cls-1" d="M30.8,296.32c3,0,5.82,1.38,6.75,4.71H35.08a4.3,4.3,0,0,0-4.3-2.45c-3.16,0-5.05,2.43-5.05,5.44,0,3.18,2,5.46,5.05,5.46,2.58,0,4.45-1,4.86-3.91H31v-2.13h7c.17,4.49-2,8.32-7.22,8.32a7.72,7.72,0,0,1,0-15.44Z"/><path id="Trazado_9" data-name="Trazado 9" class="cls-1" d="M49.33,311.75A7.72,7.72,0,1,1,57,304v0a7.34,7.34,0,0,1-7,7.71A6.06,6.06,0,0,1,49.33,311.75Zm.05-2.36a5.36,5.36,0,1,0-5.13-5.59,1.92,1.92,0,0,0,0,.24c0,3.5,2.29,5.35,5.13,5.35Z"/><path id="Trazado_10" data-name="Trazado 10" class="cls-1" d="M70.83,303.74a3.44,3.44,0,0,1,2.43,3.48c0,2.69-1.85,4.34-4.77,4.34H61.76v-15h6.1c2.73,0,4.73,1.44,4.73,4.28A3.14,3.14,0,0,1,70.83,303.74Zm-6.57-5.05v4.23H67.7c1.44,0,2.43-.6,2.45-2.06s-1-2.17-2.45-2.17Zm0,6.27v4.4h4.09A2.24,2.24,0,0,0,70,305.43a3.07,3.07,0,0,0-2-.47Z"/><path id="Trazado_11" data-name="Trazado 11" class="cls-1" d="M84.27,309.54v2H77v-2H79.4v-11H77.21v-2h6.88v2H81.9v11Z"/><path id="Trazado_12" data-name="Trazado 12" class="cls-1" d="M98,298.71H91.39v4h6.28v2.21H91.39v4.38h6.77v2.28H88.87v-15H98Z"/><path id="Trazado_13" data-name="Trazado 13" class="cls-1" d="M115.26,311.19v.37h-2.54L109,306.32h-3.31v5.24h-2.51v-15h6.21a4.84,4.84,0,0,1,5.21,4.47,3.09,3.09,0,0,1,0,.43,4.7,4.7,0,0,1-3.16,4.51Zm-5.91-6.94a2.72,2.72,0,0,0,2.81-2.62v-.19a2.69,2.69,0,0,0-2.63-2.75h-3.9v5.57Z"/><path id="Trazado_14" data-name="Trazado 14" class="cls-1" d="M122,301.33l.17,4.77v5.46h-2.47V296.48h.91l9.13,10.12-.17-4.6v-5.48h2.49v15.06h-.86Z"/><path id="Trazado_15" data-name="Trazado 15" class="cls-1" d="M144.42,311.75a7.72,7.72,0,1,1,7.69-7.74v0a7.34,7.34,0,0,1-7,7.71A6.09,6.09,0,0,1,144.42,311.75Zm0-2.36a5.36,5.36,0,1,0-5.13-5.59c0,.08,0,.16,0,.24,0,3.5,2.31,5.35,5.14,5.35Z"/><path id="Trazado_16" data-name="Trazado 16" class="cls-1" d="M169.58,296.54a7.13,7.13,0,0,1,7.35,6.91c0,.19,0,.38,0,.56,0,4-2.62,7.54-7.35,7.54h-5.44v-15h5.44Zm-.05,12.74c3.11,0,4.9-2.41,4.9-5.24s-1.8-5.24-4.88-5.24h-2.92v10.49Z"/><path id="Trazado_17" data-name="Trazado 17" class="cls-1" d="M190.84,298.71H184.2v4h6.28v2.21H184.2v4.38H191v2.28h-9.29v-15h9.16Z"/><path id="Trazado_18" data-name="Trazado 18" class="cls-1" d="M198.48,309.31H205v2.26h-9V296.52h2.51Z"/><path id="Trazado_19" data-name="Trazado 19" class="cls-1" d="M224.82,298.71h-6.64v4h6.28v2.21h-6.28v4.38H225v2.28h-9.29v-15h9.16Z"/><path id="Trazado_20" data-name="Trazado 20" class="cls-1" d="M231.36,307.28c.1,1.7,1.95,2.24,3.59,2.24s3.48-.39,3.48-2.26-2-2.17-3.78-2.34c-2.75-.23-5.48-1.11-5.48-4.12s2.73-4.47,5.65-4.47,5.57,1.29,5.63,4.36h-2.3c-.11-1.61-1.87-2.12-3.35-2.12s-3.16.47-3.16,2.17,1.7,1.91,3.44,2.15c3,.34,5.84.94,5.84,4.41,0,3.31-3.11,4.47-5.93,4.47s-6-1.31-6.08-4.47Z"/><path id="Trazado_21" data-name="Trazado 21" class="cls-1" d="M244,298.73v-2.21H255.2v2.21h-4.36v12.83h-2.45V298.73Z"/><path id="Trazado_22" data-name="Trazado 22" class="cls-1" d="M260.47,308.44,259,311.55h-2.62v-.33l7-14.83h1.16l6.92,14.83v.32h-2.6l-1.48-3.11Zm.82-2.1h5.26l-2.62-6Z"/><path id="Trazado_23" data-name="Trazado 23" class="cls-1" d="M280.69,296.54a7.13,7.13,0,0,1,7.35,6.91c0,.19,0,.38,0,.56,0,4-2.62,7.54-7.35,7.54h-5.44v-15h5.44Zm0,12.74c3.11,0,4.9-2.41,4.9-5.24s-1.8-5.24-4.88-5.24h-2.92v10.49Z"/><path id="Trazado_24" data-name="Trazado 24" class="cls-1" d="M299.54,311.75a7.72,7.72,0,1,1,7.7-7.73v0a7.34,7.34,0,0,1-6.95,7.71Zm0-2.36a5.36,5.36,0,1,0-5.13-5.59,1.92,1.92,0,0,0,0,.24c0,3.5,2.3,5.35,5.13,5.35Z"/></g><g id="Grupo_6" data-name="Grupo 6"><g id="Grupo_5" data-name="Grupo 5"><g id="Grupo_3" data-name="Grupo 3"><path id="Trazado_25" data-name="Trazado 25" class="cls-1" d="M163.65,22.48v8.3a8,8,0,0,1,3.35,0h0V22.48A5.48,5.48,0,0,0,163.65,22.48Z"/><path id="Trazado_26" data-name="Trazado 26" class="cls-1" d="M128.89,24.68a1.48,1.48,0,0,0,.85,1.19,26,26,0,0,0,11,2.51A25.22,25.22,0,0,0,155,23.79,19.74,19.74,0,0,1,175.42,23,7.61,7.61,0,0,1,170,25h-1.27v3H170a10.21,10.21,0,0,0,8.85-4.6h0l0,0h0a1.52,1.52,0,0,0,.19-.72V5a1.47,1.47,0,0,0-.64-1.22,22.71,22.71,0,0,0-25.09,0A22,22,0,0,1,131,5.63a1.48,1.48,0,0,0-1.59,2.45L139,16.36l-9.49,7A1.52,1.52,0,0,0,128.89,24.68Zm13.32-7a1.47,1.47,0,0,0,.32-2.06,1.7,1.7,0,0,0-.22-.24l-5.63-4.86A24.86,24.86,0,0,0,155,6.24a19.73,19.73,0,0,1,21.12-.42V20a22.82,22.82,0,0,0-22.78,1.36,21.91,21.91,0,0,1-20,2.8Z"/><path id="Trazado_27" data-name="Trazado 27" class="cls-1" d="M163.65,15.23H167V12h3.19V8.68H167V5.49h-3.36V8.68h-3.19V12h3.19Z"/><path id="Trazado_28" data-name="Trazado 28" class="cls-1" d="M237,136.7c1.06-1.25,2.17-2.53,3.25-3.76,4.42-5,9-10.26,12-16.63a29.59,29.59,0,0,0,2.86-16.43A25.78,25.78,0,0,0,239.77,79.6,11.89,11.89,0,0,0,241.44,72v-.07a1.61,1.61,0,0,0-2.74-1,6.25,6.25,0,0,1-6.56,1.46l-.23-.09a30.7,30.7,0,0,0-15.45-1.69c0-.07,0-.15,0-.22a10.43,10.43,0,0,0-.53-3.28,1.62,1.62,0,0,0-2-1,1.51,1.51,0,0,0-.29.13,4.28,4.28,0,0,1-2.12.56,4.19,4.19,0,0,1-.5,0,23.59,23.59,0,0,0-2.38-.13,24.25,24.25,0,0,0-6.67.93,23.84,23.84,0,0,0-3.1,1.12,24.21,24.21,0,0,0-5.56,3.41,23.8,23.8,0,0,0-2.39,2.22c-.47.5-.94,1-1.38,1.56a18.87,18.87,0,0,0-1.18,1.68c-.77,1.17-1.45,2.4-2.23,3.56l-.25.37-.13.19s-.12.13-.12.17l0,0-.06.08c-.23.31-.47.62-.72.92s-.54.65-.82,1c-.43.48-.87.93-1.33,1.37l-.53.5c-.32.29-.64.58-1,.86l-.28.24-4.91-3.38-.78-4.7c.33-.51.64-1,.92-1.55l.18-.29c.15-.29.27-.58.41-.88l.1-.24c.11-.25.22-.5.32-.75,0-.1.09-.2.12-.3s.08-.23.12-.34l1.38-.3,1.1-8h0l-1.49-.36c0-.26,0-.51-.1-.77s-.11-.67-.19-1a13,13,0,0,0-1-2.75,1.27,1.27,0,0,1-.06-.18A10.25,10.25,0,0,0,171.15,56l-.2-.07.09-.22c.07-.18.14-.35.22-.53a10.18,10.18,0,0,1,4.63-4.89c.34.86.51,1.47.52,1.48a1.42,1.42,0,0,0,1.53,1,2.68,2.68,0,0,0,1.16-.43,4.77,4.77,0,0,0,1.4-1.53,10.86,10.86,0,0,0,.76-10.07,7.16,7.16,0,0,0-6.16-4.5,6.75,6.75,0,0,0-2.7.47,7.83,7.83,0,0,0-14.13,0,6.58,6.58,0,0,0-2.7-.47,7.16,7.16,0,0,0-6.16,4.5,10.89,10.89,0,0,0,.76,10.07,5,5,0,0,0,1.4,1.53,2.41,2.41,0,0,0,1.16.43,1.42,1.42,0,0,0,1.52-1s.18-.62.52-1.48a10.23,10.23,0,0,1,4.63,4.89c.08.17.15.35.22.53l.1.22-.2.07A10.28,10.28,0,0,0,153.73,61l-.06.18a12.64,12.64,0,0,0-1,2.75c-.08.33-.13.66-.19,1s-.06.51-.1.77l-1.49.36h0l1.1,8,1.38.3c0,.11.07.23.12.34s.08.2.12.3c.1.25.21.5.32.75l.1.24c.13.29.26.59.41.88l.18.29c.28.53.6,1,.94,1.58l-.78,4.68-4.93,3.4a25.64,25.64,0,0,1-2.7-2.51l-.43-.48c-.55-.61-1.06-1.24-1.54-1.89l-.07-.09s-.1-.14-.12-.17l-.13-.19c-.08-.12-.17-.24-.25-.37-.78-1.16-1.46-2.39-2.22-3.56-.38-.57-.75-1.14-1.18-1.68s-.9-1.06-1.38-1.56a24.36,24.36,0,0,0-17.73-7.68,23.59,23.59,0,0,0-2.38.13,4.19,4.19,0,0,1-.5,0,4.29,4.29,0,0,1-2.13-.56,1.63,1.63,0,0,0-1.38-.11,1.6,1.6,0,0,0-1,1,10.48,10.48,0,0,0-.53,3.28c0,.1,0,.21,0,.32a30.7,30.7,0,0,0-16,1.59l-.23.09A6.26,6.26,0,0,1,91.37,71a1.61,1.61,0,0,0-2.28,0,1.58,1.58,0,0,0-.46,1V72a11.83,11.83,0,0,0,1.67,7.61A25.78,25.78,0,0,0,74.93,99.89a29.42,29.42,0,0,0,2.86,16.43c3,6.37,7.56,11.59,12,16.63,1.08,1.23,2.2,2.51,3.26,3.76.35.42.73.86,1.11,1.3,2.75,3.18,5.86,6.8,5.86,10.25,0,3.72-2.22,5.94-5.94,5.94a6.56,6.56,0,0,1-2.28-.4,3.05,3.05,0,0,0-.9-.17h0s-3.08-.37-3.94,2.46a3.23,3.23,0,0,0-3.21,3.55l0,.17A18.72,18.72,0,0,0,102,176.33h.25a19.14,19.14,0,0,0,11.48-4l.1.1a3.25,3.25,0,0,0,4.17.36,20.27,20.27,0,0,0,6.08-6.84l0,0c.12-.22.23-.44.34-.67l.32.57c.22.37.45.73.67,1.09,8.17,12.69,23.35,20.58,39.64,20.58s31.48-7.89,39.64-20.58c.23-.36.46-.72.68-1.09.11-.19.22-.38.32-.57.11.23.22.45.34.67l0,0a20.37,20.37,0,0,0,6.08,6.84,3.23,3.23,0,0,0,4.16-.36l.1-.1a19.14,19.14,0,0,0,11.48,4h.24a18.72,18.72,0,0,0,18.2-16.53l0-.17a3.23,3.23,0,0,0-2.9-3.54l-.32,0c-.86-2.83-3.94-2.46-3.94-2.46h0a3.05,3.05,0,0,0-.9.17,6.56,6.56,0,0,1-2.28.4c-3.72,0-5.94-2.22-5.94-5.94,0-3.46,3.11-7.07,5.86-10.25C236.31,137.56,236.69,137.12,237,136.7ZM221,73.57a27.47,27.47,0,0,1,9.82,1.81l.25.09a9.46,9.46,0,0,0,7.09-.24,8.49,8.49,0,0,1-1.44,3.23,46.45,46.45,0,0,0-6.32-.79,23.08,23.08,0,0,0-19.66,11,3.54,3.54,0,0,0-3.49-2.47h-9.44A27.63,27.63,0,0,1,221,73.57Zm3.34,39.63c.08.26.17.51.27.76a9.61,9.61,0,0,0,9.22,6h.39c-7,7.12-16.73,10.92-23.39,18.34V112.72c.29-.28.51-.48.7-.68,1.89-2,3.61-4.14,5.56-6.06,2.91-2.87,6.23-5.37,10.41-5.92a7.94,7.94,0,0,1,4.92.57,4.57,4.57,0,0,1,1.91,2,4.48,4.48,0,0,1-.9,5,2.59,2.59,0,0,1-.42.32,4.69,4.69,0,0,1-2.21.82,3.71,3.71,0,0,1-1.55-.16,4,4,0,0,0-1.84-.26,3.56,3.56,0,0,0-2.46,1.34,3.8,3.8,0,0,0-.61,3.43ZM176.72,68.59l-.31,2.83h-.06l-1.55.32-1.5.31V67.77l1.91.45ZM165.31,77h.05l8.18-1.76h0a16.71,16.71,0,0,1-1.09,1.88c-.28.41-.58.82-.9,1.21a7.33,7.33,0,0,1-12.42,0c-.32-.39-.62-.8-.9-1.21a18.4,18.4,0,0,1-1.09-1.88h0Zm-4.81-4.28V67l3.27-.78v7.13Zm6.4.67V66.25l3.27.78v5.68ZM156.24,47.47a6.87,6.87,0,0,1,2.36-2.28,10.34,10.34,0,0,0-6.17,3,7.86,7.86,0,0,1,0-6.2,3.86,3.86,0,0,1,3.33-2.52,6.31,6.31,0,0,1,3.26.83,9.81,9.81,0,0,1,4.9,6.39,10.22,10.22,0,0,0-2.09-7.27,8.4,8.4,0,0,0-.83-1,4.58,4.58,0,0,1,8.65,0,8.4,8.4,0,0,0-.83,1,10.21,10.21,0,0,0-2.09,7.27,9.81,9.81,0,0,1,4.9-6.39,6.42,6.42,0,0,1,3.27-.83A3.89,3.89,0,0,1,178.23,42a7.86,7.86,0,0,1,0,6.2,10.43,10.43,0,0,0-6.17-3,6.78,6.78,0,0,1,2.36,2.28,13.37,13.37,0,0,0-6.08,6.45l-.25.6c-.06.14-.11.28-.17.41-.9-.37-1.71-.87-2.58-1.33h0c-.88.46-1.68,1-2.58,1.33-.06-.13-.11-.27-.17-.41s-.17-.4-.25-.6a13.43,13.43,0,0,0-6.08-6.46ZM161,59.06c.72-.25,1.5-.46,2.23-.74a18.7,18.7,0,0,0,2.13-1.11,18,18,0,0,0,2.13,1.11c.73.28,1.51.49,2.23.74a8.2,8.2,0,0,1,5.08,5.82c-8.6-2.12-9.2-2.26-9.42-2.27h0c-.21,0-.81.15-9.42,2.27A8.23,8.23,0,0,1,161,59.06ZM154.3,71.43h-.05l-.31-2.83,1.51-.36,1.91-.45v4.29l-1.5-.31Zm3.59,13.66.48-2.76.22.18a10.13,10.13,0,0,0,6.73,2.87h0a10.06,10.06,0,0,0,6.73-2.87l.23-.24.49,2.82,5.36,3.71-.8.48a27,27,0,0,1-7.31,2.9,20,20,0,0,1-4.74.66,20.83,20.83,0,0,1-4.09-.53,26.41,26.41,0,0,1-7.54-2.82c-.39-.22-.77-.45-1.16-.69ZM93.66,75.81A9.55,9.55,0,0,0,99,75.48l.25-.09a27.59,27.59,0,0,1,33,10.82h-9.43a3.54,3.54,0,0,0-3.48,2.47,23.08,23.08,0,0,0-19.66-11,46.25,46.25,0,0,0-6.32.79A8.63,8.63,0,0,1,92,75.25a11,11,0,0,0,1.71.56Zm29.57,81.76c0,.26,0,.52-.08.78l0,.17c0,.28-.08.55-.13.81v.07a16.57,16.57,0,0,1-1.1,3.57l-.06.15c-.09.21-.19.41-.29.61s-.14.28-.22.42a17.2,17.2,0,0,1-5.24,6,17.13,17.13,0,0,0,2.55-14.73v0a23.69,23.69,0,0,1-3.1,10l0,0a15.49,15.49,0,0,1-13.34,7.75H102c-7.37,0-14.11-6-15-13.67v-.07l0,0a.44.44,0,0,1,.08.11,11.33,11.33,0,0,0,20.81-5.48,11.26,11.26,0,0,1-5,5.71l-.14.08a10.28,10.28,0,0,1-2,.85c-2.93,1-8.18,1.72-11.2-4.12a6.15,6.15,0,0,1,.71.28,10.61,10.61,0,0,0,1.53.52,9.18,9.18,0,0,0,1.74.19,13.82,13.82,0,0,0,1.58-.07l.79-.08.57-.11a9.25,9.25,0,0,0,2.29-.84,8.11,8.11,0,0,0,3.29-3.21,9.17,9.17,0,0,0,.89-2.26,10.9,10.9,0,0,0,.31-2.61c0-5.23-4.59-9.9-7.73-13.63C90.2,128.38,84.23,122.44,80.7,115a26.47,26.47,0,0,1-2.58-14.62C79.6,89.45,88.54,80.92,99.71,80.92A19.87,19.87,0,0,1,117,91.05c.32.62,2.23,4.47,2.24,7.47v9l0,0a46.35,46.35,0,0,0-7.47-7.28c-4.3-3.06-10.64-5.29-15.61-2.5A8.33,8.33,0,0,0,93,109.11a6.65,6.65,0,0,0,.39.63,7.68,7.68,0,0,0,8.54,2.73s-1.8,5.75-8.63,3.25a7.71,7.71,0,0,1-1.43-.73,12,12,0,0,1-2.27-2,11.3,11.3,0,0,1-1-1.23,12.43,12.43,0,0,1-1.9-4.44,12.72,12.72,0,0,1,1.08-7.82,15.56,15.56,0,0,1,9.31-7.68,16.62,16.62,0,0,1,14.61,2.62A8.9,8.9,0,0,1,113,95.52c-2.09-4.43-7.59-6.78-12.25-7a17,17,0,0,0-13.84,6.41A17.27,17.27,0,0,0,83.6,108.7c.94,5.28,5.17,9.72,8.51,13.72,6,7.15,12.07,14.18,16.54,22.41a20.45,20.45,0,0,1,2.49,10.24,13.52,13.52,0,0,1-12.88,13.51h0a13.79,13.79,0,0,0,14.56-7.1c6.1-11.34-3.53-22.85-10.25-31.19-.41-.51-2.55-3-3.48-4.07l7.8,5.63c1.57,1.15,3.15,2.32,4.71,3.58a41.44,41.44,0,0,1,6.26,6.16c3.18,3.94,5.89,9.9,5.41,16ZM95.87,119.93h.39a9.61,9.61,0,0,0,9.22-6,6.86,6.86,0,0,0,.27-.76,3.72,3.72,0,0,0-.62-3.42,3.56,3.56,0,0,0-2.46-1.34,4,4,0,0,0-1.84.26,3.58,3.58,0,0,1-1.56.16,4.69,4.69,0,0,1-2.21-.82,4.63,4.63,0,0,1-.42-.32,4.5,4.5,0,0,1-.91-5,4.57,4.57,0,0,1,1.91-2,7.94,7.94,0,0,1,4.92-.57c4.19.55,7.5,3.05,10.42,5.92,2,1.92,3.66,4.11,5.56,6.06l.7.68v25.55c-6.64-7.42-16.39-11.23-23.37-18.35Zm107.72,37.74c0,.05,0,.1,0,.16a21.54,21.54,0,0,0,.44,2.88h0a36.7,36.7,0,0,1-1.87,3.57c-.2.34-.41.67-.62,1-7.29,11.34-20.92,19-36.54,19s-29.24-7.63-36.53-19l-.62-1a36.86,36.86,0,0,1-1.87-3.58h0a21.54,21.54,0,0,0,.44-2.88c0-.06,0-.11,0-.16a25.27,25.27,0,0,0-3.6-14.49V89.42h15.09L136,86.19h0l.1.18A30.8,30.8,0,0,0,117.48,71.5a7.42,7.42,0,0,1-.08-1c0-.2,0-.39,0-.59A7.52,7.52,0,0,0,120,70a20.47,20.47,0,0,1,2.08-.11h.52a21.22,21.22,0,0,1,14.8,6.57,20.93,20.93,0,0,1,2.15,2.65c.78,1.14,1.46,2.33,2.23,3.47a31.15,31.15,0,0,0,2.5,3.22c.63.71,1.3,1.38,2,2,.34.32.68.62,1,.92l.1.09c.33.28.67.56,1,.82l.14.11c.34.26.69.52,1,.76l.14.1q.54.38,1.08.72l.08,0a30.42,30.42,0,0,0,4.75,2.44l.25.1.91.34c.75.27,1.52.52,2.29.73a20.89,20.89,0,0,0,12.52,0c.77-.21,1.54-.46,2.29-.73l.91-.34.24-.1a30.53,30.53,0,0,0,4.76-2.44l.08,0q.55-.35,1.08-.72l.14-.1c.35-.24.69-.5,1-.76l.14-.11.32-.26h0l.25-.22.43-.35.11-.09q.44-.37.87-.78l.16-.14h0c.68-.64,1.35-1.3,2-2,.43-.48.83-1,1.22-1.46l.25-.32c.33-.43.64-.87.95-1.31l.09-.13.09-.14c.22-.32.42-.65.62-1,.5-.79,1-1.59,1.52-2.36a21.26,21.26,0,0,1,13.55-8.87,21.55,21.55,0,0,1,3.4-.36h.52c.6,0,1.28,0,2.08.11a7.56,7.56,0,0,0,2.55-.16,5.82,5.82,0,0,1,0,.59,6.65,6.65,0,0,1-.06.89,30.85,30.85,0,0,0-19.28,15l.1-.18h0c-1.91,3.22,0,0-1.91,3.23H207.2v53.76a25.39,25.39,0,0,0-3.6,14.52Zm23.25-9.42a11,11,0,0,0,.31,2.61,8.79,8.79,0,0,0,.89,2.26,7.9,7.9,0,0,0,1.41,1.84,8.47,8.47,0,0,0,1.88,1.37,9.4,9.4,0,0,0,2.29.84,5.72,5.72,0,0,0,.57.11l.8.08a13.92,13.92,0,0,0,1.58.07,8.51,8.51,0,0,0,1.74-.19,9.19,9.19,0,0,0,1.53-.52c.23-.1.47-.2.71-.28-3,5.84-8.27,5.11-11.2,4.12a10.64,10.64,0,0,1-2-.85l-.14-.08a11.34,11.34,0,0,1-5-5.71A11.33,11.33,0,0,0,243,159.41a.44.44,0,0,1,.08-.11l0,0v.07c-.89,7.64-7.63,13.67-15,13.67h-.2a15.49,15.49,0,0,1-13.34-7.75l0,0a23.69,23.69,0,0,1-3.1-10v0A17.13,17.13,0,0,0,214,170.12a17.2,17.2,0,0,1-5.24-6l-.22-.42c-.1-.2-.2-.41-.29-.61l-.07-.15a16.57,16.57,0,0,1-1.1-3.57v-.07c0-.27-.09-.54-.13-.81l0-.17c0-.26-.06-.51-.08-.78-.48-6.09,2.23-12,5.41-16a41,41,0,0,1,6.26-6.16c1.56-1.26,3.13-2.42,4.71-3.58l7.8-5.63c-.92,1.09-3.06,3.56-3.48,4.07-6.72,8.34-16.34,19.84-10.25,31.19a13.79,13.79,0,0,0,14.56,7.1h0a13.52,13.52,0,0,1-12.88-13.51,20.67,20.67,0,0,1,2.49-10.24c4.47-8.23,10.57-15.27,16.54-22.41,3.34-4,7.58-8.44,8.51-13.72a17.26,17.26,0,0,0-3.33-13.77,17,17,0,0,0-13.84-6.41c-4.67.22-10.16,2.57-12.25,7a9.47,9.47,0,0,1,1.29-1.08,18.76,18.76,0,0,1,1.62-1.06,18,18,0,0,1,13-1.56,15.57,15.57,0,0,1,9.31,7.68,12.7,12.7,0,0,1,1.08,7.82,12.41,12.41,0,0,1-.84,2.54,13.56,13.56,0,0,1-1.06,1.9,11.3,11.3,0,0,1-1,1.23,12,12,0,0,1-2.27,2,6.65,6.65,0,0,1-1.43.73c-6.83,2.5-8.63-3.25-8.63-3.25a7.67,7.67,0,0,0,8.54-2.73,8.35,8.35,0,0,0-2.16-11.59,6.65,6.65,0,0,0-.63-.39c-5-2.79-11.3-.56-15.61,2.5a46.76,46.76,0,0,0-7.47,7.28l0,0v-9c0-3,1.92-6.87,2.24-7.49a19.87,19.87,0,0,1,17.32-10.13c11.17,0,20.11,8.53,21.59,19.41A26.47,26.47,0,0,1,249.34,115c-3.53,7.5-9.5,13.43-14.78,19.68-3.13,3.73-7.72,8.39-7.72,13.62Z"/></g><g id="Grupo_4" data-name="Grupo 4"><path id="Trazado_29" data-name="Trazado 29" class="cls-1" d="M171,145.23v-.53a1.49,1.49,0,0,0-1.49-1.49h0v4.55l5.45-1.76a5.34,5.34,0,0,0,1.54,3,5.08,5.08,0,0,1,1.39,2.18l-4,1.73a6.23,6.23,0,0,0,0,3.82,6.06,6.06,0,0,1-2.8-1.21v-1.4a1.49,1.49,0,0,0-1.49-1.49h0v4.56a8.42,8.42,0,0,0,4.59,1.57,1.4,1.4,0,0,1,1.38,1.41.41.41,0,0,0,.43-.38v0a4.17,4.17,0,0,0-.17-1.16,4.43,4.43,0,0,1-.15-1.15,4.29,4.29,0,0,1,.42-1.86,4.21,4.21,0,0,1,.72-.18,5.46,5.46,0,0,1,1.07-.1,5.87,5.87,0,0,1,1.56.21,4.87,4.87,0,0,0,1,.17,4.35,4.35,0,0,0,.51,0,5.72,5.72,0,0,0,1.79-.28s.22-.08.27.09-.14.32-.14.32a3.08,3.08,0,0,1-1.68.71,7.5,7.5,0,0,1-.82,0c.59,1.38,1,2.54,1.11,2.71a6.09,6.09,0,0,0,3.82,0,6.06,6.06,0,0,1-1.21,2.8h-1.4a1.49,1.49,0,0,0-1.49,1.49h4.56a8.34,8.34,0,0,0,1.57-4.59,1.41,1.41,0,0,1,1.41-1.38.41.41,0,0,0-.38-.43h0a4.17,4.17,0,0,0-1.16.17,4.41,4.41,0,0,1-3-.27,5.93,5.93,0,0,1-.07-3.34h0a1,1,0,0,0,0-.24,4.75,4.75,0,0,0,5.75-3.46,4.89,4.89,0,0,0,.14-1.15,4.59,4.59,0,0,0-.49-2.09l-.41-.88a8,8,0,0,1,.37-8h0l.14-.06a4.2,4.2,0,0,0,.78-.43,2.84,2.84,0,0,0,1-1.87c0-.08,0-.16,0-.24v-.15a2.61,2.61,0,0,0,0-.48,3.78,3.78,0,0,0-.33.22,4.82,4.82,0,0,0-.51.38c-.16.14-.33.27-.48.41s-.31.29-.45.45l-.42.47,0,0-.11.14h0l0,.06-.09.11-.13.18,0,.05a9,9,0,0,0-.56,9.27l.4.85a3.64,3.64,0,0,1,.39,1.65,3.73,3.73,0,0,1-3.72,3.72h-.13a3.42,3.42,0,0,1-2.54-1.3c-.12-.15-.22-.29-.31-.42a6.15,6.15,0,0,1-1.13-3.56l.07.09v0a4.13,4.13,0,0,0,1.46,1,.09.09,0,0,0,.13,0,.12.12,0,0,0,0-.1,4.42,4.42,0,0,1-.16-2.31,6.06,6.06,0,0,1,.42-1.31,1.28,1.28,0,0,0,.25.76.1.1,0,0,0,.14,0,.1.1,0,0,0,0-.07,6.94,6.94,0,0,1,.7-2.07l.22-.4c.12-.22.24-.42.37-.63a7.33,7.33,0,0,0,.39-.67h0l0,0,0-.09,0-.07,0-.08,0-.08,0-.08,0-.08,0-.09,0-.08,0-.09,0-.08,0-.09,0-.08,0-.09,0-.08,0-.09,0-.08,0-.09,0-.08,0-.09,0-.08v-1.06a6.14,6.14,0,0,0-2.32-4.81l.34.08a.12.12,0,0,0,.11-.09.13.13,0,0,0,0-.08,6.09,6.09,0,0,0-4.47-1.29l-.33.05a.33.33,0,0,0-.24.2l-.2.65-.17,0a1.78,1.78,0,0,0-1.19.81l-1.7.7a.35.35,0,0,0-.23.36.37.37,0,0,0,.1.22c0,.26.2,1.3.63,1.36l.53-.16h0l.08,0h0c.48-.12,1.11-.22,1.28.07,0,0,.37.81-.11,1a3.85,3.85,0,0,1-.67.09l-.42,0-.25,0s-.26.79.23,1a4.12,4.12,0,0,1,1.21-.18h.52l.26,0a5.51,5.51,0,0,0,1.83-.53,2.46,2.46,0,0,1-1.32.89s-.43.14-.75.22a2.84,2.84,0,0,0-.38.13,5.73,5.73,0,0,0-2.1,1.54l-5.22-2.46.08-.06v-1a1.49,1.49,0,0,0-.93-1.38,1.22,1.22,0,0,0-.56-.14v3.55l4.38,3.15,1.73-.46a.27.27,0,0,1,.35.13.26.26,0,0,1-.11.34Z"/><path id="Trazado_30" data-name="Trazado 30" class="cls-1" d="M148.63,159.29a6.09,6.09,0,0,1-3.82,0,6.06,6.06,0,0,0,1.21,2.8h1.4a1.49,1.49,0,0,1,1.49,1.49h-4.56a8.42,8.42,0,0,1-1.57-4.59,1.41,1.41,0,0,0-1.41-1.38.41.41,0,0,1,.38-.43h0a4.17,4.17,0,0,1,1.16.17,4.35,4.35,0,0,0,3-.27,5.93,5.93,0,0,0,.07-3.34h0a1,1,0,0,1,0-.23,4.76,4.76,0,0,1-5.41-6.7l.41-.88a8,8,0,0,0-.37-8h0l-.14-.06a4.6,4.6,0,0,1-.78-.44,2.79,2.79,0,0,1-1-1.87c0-.08,0-.16,0-.24v-.15a2.61,2.61,0,0,1,.05-.48,3.78,3.78,0,0,1,.33.22,4.82,4.82,0,0,1,.51.38c.16.14.33.27.48.41s.31.29.45.45l.42.47,0,0,.11.14h0l0,.06.09.12.13.18,0,0a9,9,0,0,1,.56,9.27l-.4.85a3.71,3.71,0,0,0,3.33,5.36h.13a3.47,3.47,0,0,0,2.54-1.3c.12-.15.22-.29.31-.42a6.15,6.15,0,0,0,1.13-3.57l-.07.09h0a4.07,4.07,0,0,1-1.45,1,.09.09,0,0,1-.13,0,.12.12,0,0,1,0-.1,4.42,4.42,0,0,0,.16-2.31,6.06,6.06,0,0,0-.42-1.31,1.3,1.3,0,0,1-.25.76.1.1,0,0,1-.14,0,.08.08,0,0,1,0-.06,6.94,6.94,0,0,0-.7-2.07c-.15-.27-.21-.37-.22-.4-.12-.21-.24-.42-.37-.63a7.16,7.16,0,0,1-.39-.66h0l0-.05,0-.09,0-.07,0-.09,0-.07,0-.09,0-.08,0-.09,0-.08,0-.09,0-.08,0-.09,0-.08,0-.09,0-.08,0-.09,0-.08,0-.09,0-.08,0-.09,0-.08v-1.07a6.14,6.14,0,0,1,2.32-4.81l-.34.08a.12.12,0,0,1-.11-.09.13.13,0,0,1,0-.08,6.09,6.09,0,0,1,4.47-1.29l.33.05a.3.3,0,0,1,.23.2l.2.65.17,0a1.78,1.78,0,0,1,1.19.81l1.7.7a.36.36,0,0,1,.23.36.32.32,0,0,1-.1.22c0,.26-.2,1.3-.63,1.36l-.53-.16h0l-.07,0h0c-.48-.13-1.11-.22-1.28.07,0,0-.37.81.11,1,.22,0,.44.07.67.09l.42,0,.25,0s.26.79-.23,1a4.13,4.13,0,0,0-1.21-.19h-.52a1.9,1.9,0,0,1-.25,0,5.51,5.51,0,0,1-1.83-.53,2.46,2.46,0,0,0,1.32.89l.75.23.38.13a5.58,5.58,0,0,1,2.09,1.54l5.22-2.46-.08-.06v-1a1.49,1.49,0,0,1,.93-1.38,1.19,1.19,0,0,1,.56-.14v3.54l-4.34,3.13-1.86-.5a.27.27,0,0,0-.35.13.26.26,0,0,0,.11.34l5,2.51v-.53a1.49,1.49,0,0,1,1.49-1.49h0v4.55L155.21,146a5.37,5.37,0,0,1-1.54,3,5.1,5.1,0,0,0-1.39,2.17l4,1.73a6.09,6.09,0,0,1,0,3.82,6.17,6.17,0,0,0,2.8-1.21v-1.4a1.49,1.49,0,0,1,1.49-1.49h0v4.56a8.39,8.39,0,0,1-4.58,1.57,1.41,1.41,0,0,0-1.38,1.41.41.41,0,0,1-.43-.38v0a3.83,3.83,0,0,1,.17-1.16,4.41,4.41,0,0,0-.27-3,6,6,0,0,0-1.78-.28,5,5,0,0,0-.67.05l.35-2.21a.26.26,0,0,0-.17-.3.26.26,0,0,0-.31.15Z"/></g><path id="Trazado_31" data-name="Trazado 31" class="cls-1" d="M180.42,107.82a11.65,11.65,0,0,0-9.89-6.2,11.25,11.25,0,0,0-10.66,0,11.65,11.65,0,0,0-9.89,6.2,9,9,0,0,0-1.71,14.87,11.28,11.28,0,0,0,8.68,7,7.48,7.48,0,0,1,6.25,7.2l0,19.67A5.74,5.74,0,0,1,158,162H156.8a1.56,1.56,0,0,0-1.56,1.56h19.95a1.56,1.56,0,0,0-1.56-1.56h-1.16a5.64,5.64,0,0,1-5.27-5.49V136.85a7.43,7.43,0,0,1,5.79-7.11l.29-.06a11.25,11.25,0,0,0,8.87-7,9.06,9.06,0,0,0,.93-12.78,9.44,9.44,0,0,0-2.67-2.08Zm-.29,12.55-.57.49-.28.7a8.13,8.13,0,0,1-5.3,4.83h0a14.73,14.73,0,0,0-2.5.77l0,0c-.14.14-.28.3-.43.44l-.06,0-.41.35-.51.37a8.53,8.53,0,0,1-9.62,0c-.17-.11-.34-.24-.51-.37l-.42-.35-.06,0c-.15-.13-.28-.29-.42-.43l-.07,0a14.73,14.73,0,0,0-2.5-.77h0a8.1,8.1,0,0,1-5.3-4.83l-.28-.7-.57-.49a6,6,0,0,1,1.14-9.84l.84-.44.44-.84a8.62,8.62,0,0,1,7.28-4.57l.72,0,.63-.34a8.19,8.19,0,0,1,7.75,0l.63.34.72,0a8.58,8.58,0,0,1,7.28,4.57l.44.84.84.44a6,6,0,0,1,1.13,9.84Z"/></g><path id="Trazado_32" data-name="Trazado 32" class="cls-1" d="M184.45,96.14A31.65,31.65,0,0,1,177.71,99h20v43.28a32.39,32.39,0,0,1-3.86,15.36c-.16.29-.31.58-.48.86a32.46,32.46,0,0,1-56.22,0c-.17-.28-.32-.57-.48-.86a32.39,32.39,0,0,1-3.86-15.36V99h20.31a32.19,32.19,0,0,1-6.91-2.83H129.94v46.11a35.08,35.08,0,0,0,4.2,16.71c.17.31.34.62.52.93a35.29,35.29,0,0,0,61.12,0c.18-.31.35-.62.52-.93a35.2,35.2,0,0,0,4.2-16.71V96.14Z"/><path id="Trazado_33" data-name="Trazado 33" class="cls-1" d="M205.92,96.85l-.71-.71-1.36,1.36-1.36-1.36-.71.71,1.36,1.36-1.36,1.36.71.71,1.36-1.36,1.36,1.36.71-.71-1.36-1.36Z"/><path id="Trazado_34" data-name="Trazado 34" class="cls-1" d="M128.46,96.85l-.71-.71-1.36,1.36L125,96.14l-.71.71,1.36,1.36-1.36,1.36.71.71,1.36-1.36,1.36,1.36.71-.71-1.36-1.36Z"/><path id="Trazado_35" data-name="Trazado 35" class="cls-1" d="M205.92,130l-.71-.71-1.36,1.36-1.36-1.36-.71.71,1.36,1.36-1.36,1.36.71.71,1.36-1.36,1.36,1.36.71-.71-1.36-1.36Z"/><path id="Trazado_36" data-name="Trazado 36" class="cls-1" d="M128.46,130l-.71-.71-1.36,1.36L125,129.3l-.71.71,1.36,1.36-1.36,1.36.71.71,1.36-1.36,1.36,1.36.71-.71-1.36-1.36Z"/><path id="Trazado_37" data-name="Trazado 37" class="cls-1" d="M136.21,164.47l-.71-.71-1.36,1.36-1.36-1.36-.71.71,1.36,1.36-1.36,1.36.71.71,1.36-1.36,1.36,1.36.71-.71-1.36-1.36Z"/><path id="Trazado_38" data-name="Trazado 38" class="cls-1" d="M198.35,164.47l-.71-.71-1.36,1.36-1.36-1.36-.71.71,1.36,1.36-1.36,1.36.71.71,1.36-1.36,1.36,1.36.71-.71L197,165.83Z"/><path id="Trazado_39" data-name="Trazado 39" class="cls-1" d="M167.23,179.54l-.71-.71-1.36,1.36-1.36-1.36-.71.71,1.36,1.36-1.36,1.36.71.71,1.36-1.36,1.36,1.36.71-.71-1.36-1.36Z"/></g></g></g></svg>