<svg id="Capa_1" data-name="Capa 1" xmlns="http://www.w3.org/2000/svg" viewBox="0 0 80 80"><defs><style>.cls-1{fill:#50a583;}.cls-2,.cls-3{fill:#fff;}.cls-3{fill-rule:evenodd;}</style></defs><g id="Layer_1" data-name="Layer 1"><path id="Trazado_56" data-name="Trazado 56" class="cls-1" d="M0,67.06H0A12.94,12.94,0,0,0,12.94,80H67.06A12.94,12.94,0,0,0,80,67.06h0V12.94A12.94,12.94,0,0,0,67.06,0h0A67.06,67.06,0,0,0,0,67.06Z"/><g id="Grupo_10" data-name="Grupo 10"><path id="Trazado_57" data-name="Trazado 57" class="cls-2" d="M33.61,27.08a.3.3,0,0,0,.28.28h.71a.3.3,0,0,0,.28-.28V22.69a.3.3,0,0,0-.28-.28h-.7a.3.3,0,0,0-.28.28v4.39Zm-5.53,4.39h39.5V30.05a4,4,0,0,0-3.11-4v1a2.69,2.69,0,0,1-2.69,2.69h-.7a2.79,2.79,0,0,1-2.69-2.69v-1h-3v1a2.69,2.69,0,0,1-2.69,2.69H52a2.79,2.79,0,0,1-2.69-2.69v-1h-3v1a2.79,2.79,0,0,1-2.69,2.69H43a2.79,2.79,0,0,1-2.69-2.69v-1h-3v1a2.79,2.79,0,0,1-2.69,2.69h-.71a2.69,2.69,0,0,1-2.69-2.69h0v-1a4,4,0,0,0-3.12,4Zm39.5,2.4H28.08V61.76a3.84,3.84,0,0,0,3.86,3.82H63.77a3.81,3.81,0,0,0,3.82-3.79V33.87ZM61.08,20h.71a2.6,2.6,0,0,1,2.69,2.5v1.18A6.42,6.42,0,0,1,70,30.05V61.77A6.28,6.28,0,0,1,63.77,68H32.05a6.31,6.31,0,0,1-6.37-6.23V30.05a6.42,6.42,0,0,1,5.52-6.37v-1A2.6,2.6,0,0,1,33.71,20h.89a2.69,2.69,0,0,1,2.69,2.69h0v1h3v-1A2.69,2.69,0,0,1,43,20h.72a2.69,2.69,0,0,1,2.69,2.69h0v1h3v-1A2.69,2.69,0,0,1,52,20h.72a2.6,2.6,0,0,1,2.69,2.51v1.17h3v-1A2.66,2.66,0,0,1,61.08,20Zm.71,2.4h-.71a.3.3,0,0,0-.28.28v4.39a.3.3,0,0,0,.28.28h.71c.28,0,.28-.14.28-.28V22.68c0-.13,0-.28-.28-.28Zm-9.07,0H52a.3.3,0,0,0-.28.28v4.39a.3.3,0,0,0,.28.28h.71a.3.3,0,0,0,.28-.28V22.68a.29.29,0,0,0-.28-.28Zm-9.06,0H43a.3.3,0,0,0-.28.28v4.39a.3.3,0,0,0,.28.28h.71a.3.3,0,0,0,.28-.28V22.68a.29.29,0,0,0-.28-.28Z"/><path id="Trazado_58" data-name="Trazado 58" class="cls-3" d="M44.79,39.68h6.09c.57,0,1,.28,1,.85v6.23a1,1,0,0,1-1,.85H44.79a1,1,0,0,1-1-.85V40.53C43.8,40,44.23,39.68,44.79,39.68Zm11.76,0h6.23a.82.82,0,0,1,.85.78v6.3a.91.91,0,0,1-.85.85H56.55a.91.91,0,0,1-.85-.85V40.53a.82.82,0,0,1,.78-.85ZM33.05,52.14h6.08a1,1,0,0,1,1,.85v6.23a1,1,0,0,1-1,.85H33a1,1,0,0,1-1-.85V53a1,1,0,0,1,1-.85Zm11.75,0h6.09a1,1,0,0,1,1,.85v6.23a1,1,0,0,1-1,.85h-6.1a1,1,0,0,1-1-.85V53a1,1,0,0,1,1-.85Zm11.75,0h6.23a.91.91,0,0,1,.85.85v6.23a.91.91,0,0,1-.85.85H56.55a.91.91,0,0,1-.85-.85V53a.91.91,0,0,1,.85-.85Z"/></g></g></svg>