<svg id="Capa_1" data-name="Capa 1" xmlns="http://www.w3.org/2000/svg" viewBox="0 0 18 18.01"><defs><style>.cls-1{fill:#2756b1;}</style></defs><g id="Layer_1" data-name="Layer 1"><path id="Trazado_93" data-name="Trazado 93" class="cls-1" d="M15.22.27A.87.87,0,0,0,14,.26h0L7.38,6.88a.87.87,0,0,0-.22.37L6.08,10.86a.85.85,0,0,0,.22.86.87.87,0,0,0,.61.26.73.73,0,0,0,.25,0l3.6-1.08a.94.94,0,0,0,.37-.22L17.74,4a.87.87,0,0,0,0-1.23h0Z"/><path id="Trazado_94" data-name="Trazado 94" class="cls-1" d="M17.13,8.14a.87.87,0,0,0-.87.87h0v5.81a1.45,1.45,0,0,1-1.45,1.45H3.19a1.45,1.45,0,0,1-1.45-1.45V3.21A1.45,1.45,0,0,1,3.19,1.76H9A.87.87,0,0,0,9,0H3.19A3.19,3.19,0,0,0,0,3.21V14.82A3.19,3.19,0,0,0,3.19,18H14.8A3.19,3.19,0,0,0,18,14.82V9a.86.86,0,0,0-.86-.87Z"/></g></svg>