<svg id="Capa_1" data-name="Capa 1" xmlns="http://www.w3.org/2000/svg" viewBox="0 0 16.93 18.65"><defs><style>.cls-1{fill:#2756b1;}.cls-2{fill:#fff;}</style></defs><g id="Layer_1" data-name="Layer 1"><g id="Grupo_15" data-name="Grupo 15"><path id="Trazado_79" data-name="Trazado 79" class="cls-1" d="M6.59,2.83h.27A.12.12,0,0,0,7,2.72V1.05A.11.11,0,0,0,6.86.94H6.59a.11.11,0,0,0-.11.11V2.72A.12.12,0,0,0,6.59,2.83Z"/><path id="Trazado_80" data-name="Trazado 80" class="cls-1" d="M3.13,2.83H3.4a.12.12,0,0,0,.11-.11V1.05A.11.11,0,0,0,3.4.94H3.13A.11.11,0,0,0,3,1.05V2.72A.12.12,0,0,0,3.13,2.83Z"/><path id="Trazado_81" data-name="Trazado 81" class="cls-1" d="M10.05,2.83h.27a.12.12,0,0,0,.11-.11V1.05a.11.11,0,0,0-.11-.11h-.27a.11.11,0,0,0-.11.11V2.72A.12.12,0,0,0,10.05,2.83Z"/><path id="Trazado_82" data-name="Trazado 82" class="cls-1" d="M16,3.86a1.52,1.52,0,0,0-1.19-1.52v.38a1,1,0,0,1-1,1h-.27a1.07,1.07,0,0,1-1-1V2.34H11.35v.38a1,1,0,0,1-1,1h-.27a1.07,1.07,0,0,1-1-1V2.34H7.89v.38a1.07,1.07,0,0,1-1,1H6.59a1.07,1.07,0,0,1-1-1V2.34H4.43v.38a1.07,1.07,0,0,1-1,1H3.13a1,1,0,0,1-1-1h0V2.34A1.52,1.52,0,0,0,.91,3.86V4.4H16Z"/><path id="Trazado_83" data-name="Trazado 83" class="cls-1" d="M13.52,2.83h.27c.11,0,.11-.05.11-.11V1.05c0-.06,0-.11-.11-.11h-.27a.11.11,0,0,0-.11.11V2.72A.11.11,0,0,0,13.52,2.83Z"/><path id="Trazado_84" data-name="Trazado 84" class="cls-1" d="M.91,5.32V16a1.46,1.46,0,0,0,1.47,1.46H14.55A1.45,1.45,0,0,0,16,16h0V5.32ZM5.51,15a.36.36,0,0,1-.38.32H2.8A.36.36,0,0,1,2.42,15V12.62a.36.36,0,0,1,.38-.32H5.13a.36.36,0,0,1,.38.32ZM10,15a.36.36,0,0,1-.38.32H7.29A.36.36,0,0,1,6.91,15V12.62a.36.36,0,0,1,.38-.32H9.61a.36.36,0,0,1,.38.32Zm0-4.76a.36.36,0,0,1-.38.32H7.29a.36.36,0,0,1-.38-.32V7.86c0-.22.16-.32.38-.32H9.62c.22,0,.38.11.38.32ZM14.49,15a.34.34,0,0,1-.32.32H11.79a.34.34,0,0,1-.32-.32V12.62a.34.34,0,0,1,.32-.32h2.38a.34.34,0,0,1,.32.32Zm0-7.14v2.38a.34.34,0,0,1-.32.32H11.79a.34.34,0,0,1-.32-.32V7.86a.31.31,0,0,1,.3-.32h2.41a.31.31,0,0,1,.32.3h0s0,0,0,0Z"/><path id="Trazado_85" data-name="Trazado 85" class="cls-2" d="M14.82,1.43V1a1,1,0,0,0-1-1h-.27a1,1,0,0,0-1,1h0v.38H11.38V1a1,1,0,0,0-1-1h-.27a1,1,0,0,0-1,1h0v.38H7.91V1a1,1,0,0,0-1-1H6.61a1,1,0,0,0-1,1h0v.38H4.44V1a1,1,0,0,0-1-1H3.07a1,1,0,0,0-1,1v.38A2.46,2.46,0,0,0,0,3.84V16a2.42,2.42,0,0,0,2.43,2.38H14.55A2.4,2.4,0,0,0,16.93,16V3.84A2.45,2.45,0,0,0,14.82,1.43Zm-1.41-.38a.11.11,0,0,1,.11-.11h.27c.11,0,.11.06.11.11V2.72s0,.11-.11.11h-.27a.12.12,0,0,1-.11-.11ZM10,1.05a.11.11,0,0,1,.11-.11h.27a.11.11,0,0,1,.11.11V2.72a.12.12,0,0,1-.11.11h-.27A.12.12,0,0,1,10,2.72Zm-3.47,0A.11.11,0,0,1,6.59.94h.27A.11.11,0,0,1,7,1.05V2.72a.12.12,0,0,1-.11.11H6.59a.12.12,0,0,1-.11-.11ZM3,1.05A.11.11,0,0,1,3.13.94H3.4a.11.11,0,0,1,.11.11V2.72a.11.11,0,0,1-.11.11H3.13A.12.12,0,0,1,3,2.72ZM.91,3.86A1.52,1.52,0,0,1,2.1,2.34v.38a1,1,0,0,0,1,1H3.4a1.07,1.07,0,0,0,1-1V2.34H5.56v.38a1.07,1.07,0,0,0,1,1h.27a1.07,1.07,0,0,0,1-1V2.34H9v.38a1.07,1.07,0,0,0,1,1h.27a1,1,0,0,0,1-1h0V2.34h1.13v.38a1.07,1.07,0,0,0,1,1h.27a1,1,0,0,0,1-1h0V2.34A1.51,1.51,0,0,1,16,3.86V4.4H.91ZM16,16a1.46,1.46,0,0,1-1.46,1.45H2.38A1.46,1.46,0,0,1,.91,16V5.32H16V16Z"/><path id="Trazado_86" data-name="Trazado 86" class="cls-2" d="M5.13,12.3H2.8a.36.36,0,0,0-.38.32V15a.36.36,0,0,0,.38.32H5.13A.36.36,0,0,0,5.51,15V12.62A.36.36,0,0,0,5.13,12.3Z"/><path id="Trazado_87" data-name="Trazado 87" class="cls-2" d="M9.62,12.3H7.3a.36.36,0,0,0-.38.32V15a.36.36,0,0,0,.38.32H9.63A.36.36,0,0,0,10,15V12.62A.38.38,0,0,0,9.62,12.3Z"/><path id="Trazado_88" data-name="Trazado 88" class="cls-2" d="M9.62,7.54H7.29c-.22,0-.38.11-.38.32v2.38a.36.36,0,0,0,.38.32H9.62a.36.36,0,0,0,.38-.32V7.86C10,7.64,9.84,7.54,9.62,7.54Z"/><path id="Trazado_89" data-name="Trazado 89" class="cls-2" d="M14.16,12.3H11.78a.34.34,0,0,0-.32.32V15a.34.34,0,0,0,.32.32h2.38a.34.34,0,0,0,.32-.32V12.62A.33.33,0,0,0,14.16,12.3Z"/><path id="Trazado_90" data-name="Trazado 90" class="cls-2" d="M14.17,7.54H11.76a.31.31,0,0,0-.3.32h0v2.38a.34.34,0,0,0,.32.32h2.38a.34.34,0,0,0,.32-.32V7.83A.29.29,0,0,0,14.17,7.54Z"/></g></g></svg>