<svg id="Capa_1" data-name="Capa 1" xmlns="http://www.w3.org/2000/svg" viewBox="0 0 30.01 19.03"><defs><style>.cls-1{fill:#2455b1;}.cls-2{fill:#fff;}</style></defs><g id="Layer_1" data-name="Layer 1"><g id="Grupo_13" data-name="Grupo 13"><path id="Trazado_63" data-name="Trazado 63" class="cls-1" d="M25.29,5.59a2.1,2.1,0,1,0-2.09-2.1h0A2.09,2.09,0,0,0,25.29,5.59Z"/><path id="Trazado_64" data-name="Trazado 64" class="cls-1" d="M13.26,10.49H10.5a.72.72,0,0,1-.59-.35L8.79,8.33A2.76,2.76,0,0,0,6.42,7H4.18A2.79,2.79,0,0,0,1.39,9.79v7a.7.7,0,0,0,.7.7H7a.7.7,0,0,0,.7-.7h0V13.51L5.62,10.16l0-.05a.68.68,0,0,1,.24-.93.77.77,0,0,1,1,.24l2,3.14h4.5a1.05,1.05,0,0,0,1.05-1v0a1,1,0,0,0-1.05-1Z"/><path id="Trazado_65" data-name="Trazado 65" class="cls-1" d="M25.82,7H23.56a2.76,2.76,0,0,0-2.38,1.32l-1.12,1.81a.72.72,0,0,1-.59.35H16.71a1,1,0,0,0-1,1h0a1,1,0,0,0,1.05,1.05h4.5L23.2,9.43h0a.72.72,0,0,1,1-.27.73.73,0,0,1,.21,1l-2.06,3.35v3.28a.7.7,0,0,0,.7.7h4.89a.7.7,0,0,0,.7-.7h0v-7A2.8,2.8,0,0,0,25.82,7Z"/><path id="Trazado_66" data-name="Trazado 66" class="cls-1" d="M4.71,5.59A2.09,2.09,0,1,0,2.62,3.5h0A2.09,2.09,0,0,0,4.71,5.59Z"/><path id="Trazado_67" data-name="Trazado 67" class="cls-2" d="M27.67,6.05A3.49,3.49,0,1,0,21.8,3.5a3.28,3.28,0,0,0,.8,2.2A4.06,4.06,0,0,0,20,7.58l-.94,1.5H16.74a2.44,2.44,0,0,1-3.45,0l0,0H10.92L10,7.58A4.28,4.28,0,0,0,7.4,5.7,3.48,3.48,0,1,0,1.22,3.5,3.39,3.39,0,0,0,2.34,6.05,4.13,4.13,0,0,0,0,9.79v7a2.1,2.1,0,0,0,2.09,2.09H7a2.1,2.1,0,0,0,2.09-2.09V14h4.19a2.44,2.44,0,0,1,3.45,0l0,0h4.19v2.79A2.09,2.09,0,0,0,23,18.86H27.9A2.1,2.1,0,0,0,30,16.77v-7A4.06,4.06,0,0,0,27.67,6.05Zm-23-4.64A2.09,2.09,0,1,1,2.63,3.5h0A2.08,2.08,0,0,1,4.72,1.41Zm9.59,10.13a1.05,1.05,0,0,1-1.05,1H8.76L6.81,9.44a.76.76,0,0,0-1-.24.68.68,0,0,0-.24.93h0l0,0,2.06,3.35v3.24a.7.7,0,0,1-.7.7H2.1a.7.7,0,0,1-.7-.7h0v-7A2.79,2.79,0,0,1,4.19,7H6.43A2.76,2.76,0,0,1,8.8,8.34l1.12,1.81a.72.72,0,0,0,.59.35h2.76a1,1,0,0,1,1.05,1h0s0,0,0,0Zm11-10.13a2.1,2.1,0,1,1-2.1,2.1,2.09,2.09,0,0,1,2.1-2.1Zm3.32,15.35a.7.7,0,0,1-.7.7H23a.7.7,0,0,1-.7-.7h0V13.48l2.06-3.35a.73.73,0,0,0-.21-1,.71.71,0,0,0-1,.27h0l-1.95,3.14h-4.5a1,1,0,0,1-1.05-1.05,1,1,0,0,1,1-1h2.76a.72.72,0,0,0,.59-.35l1.12-1.81A2.76,2.76,0,0,1,23.56,7h2.27a2.8,2.8,0,0,1,2.8,2.8Z"/></g></g></svg>