<svg id="Capa_1" data-name="Capa 1" xmlns="http://www.w3.org/2000/svg" viewBox="0 0 19.99 20.17"><defs><style>.cls-1{fill:#2756b1;}</style></defs><g id="Grupo_62" data-name="Grupo 62"><path id="Trazado_126" data-name="Trazado 126" class="cls-1" d="M10,9.31l-.78.78-.4-.4h0l-.38-.38L7.71,10l.78.78-.78.78.71.71.78-.79.78.79.71-.71-.38-.38h0l-.4-.4.78-.78Z"/><path id="Trazado_127" data-name="Trazado 127" class="cls-1" d="M19.8,4.22l-4-4a.67.67,0,0,0-.93,0,.66.66,0,0,0,0,.94l1.54,1.55-1,1s0,0,0,0L13.21,1.67a1.35,1.35,0,0,0-1.88,0l-8.81,8.8h0a4.65,4.65,0,0,0-.25,6.3L.2,18.84a.67.67,0,0,0-.2.48A.67.67,0,0,0,.66,20h0a.7.7,0,0,0,.47-.19l2.07-2.08a4.62,4.62,0,0,0,6.3-.25l8.81-8.8a1.34,1.34,0,0,0,0-1.89L16.23,4.68l0,0,1-1,1.55,1.55a.74.74,0,0,0,.47.2.63.63,0,0,0,.47-.2A.66.66,0,0,0,19.8,4.22ZM8.58,16.53h0a3.31,3.31,0,0,1-4.71,0l-.4-.4a3.31,3.31,0,0,1,0-4.71l8.8-8.81,5.11,5.11Z"/></g></svg>