<svg id="Capa_1" data-name="Capa 1" xmlns="http://www.w3.org/2000/svg" viewBox="0 0 14.25 18.67"><defs><style>.cls-1{fill:#2756b1;}.cls-2{fill:#fff;}</style></defs><g id="Layer_1" data-name="Layer 1"><g id="Grupo_14" data-name="Grupo 14"><path id="Trazado_68" data-name="Trazado 68" class="cls-1" d="M1.21,17.8H6V14.3H8.3v3.5h4.78V1.22H1.21V17.8ZM11.83,13H9.56V10.74h2.26ZM9.58,3.58c.69,0,1.37,0,2,0a.34.34,0,0,1,.24.24c0,.67,0,1.35,0,2.05H9.58Zm0,3.61h2.27V9.45H9.56ZM8.26,9.45H6V7.19H8.26ZM6,3.6H8.25V5.88H6Zm0,7.15H8.25V13H6ZM4.7,13c-.69,0-1.35,0-2,0a.38.38,0,0,1-.27-.22c0-.68,0-1.37,0-2.07H4.7V13Zm0-3.6H2.43V7.18H4.71ZM2.41,3.81a.31.31,0,0,1,.22-.22c.68,0,1.37,0,2.08,0V5.89H2.41c0-.71,0-1.39,0-2.08Z"/><path id="Trazado_69" data-name="Trazado 69" class="cls-2" d="M14.27,0H0C0,.11,0,.22,0,.34V18.67c0,.11,0,.22,0,.34H14.27c0-.11,0-.22,0-.34V.34C14.25.22,14.26.11,14.27,0ZM13.08,17.8H8.3V14.3H6v3.5H1.21V1.2H13.08V17.8Z"/><path id="Trazado_70" data-name="Trazado 70" class="cls-2" d="M4.71,5.89V3.58c-.71,0-1.39,0-2.08,0a.32.32,0,0,0-.22.22c0,.69,0,1.37,0,2.08Z"/><path id="Trazado_71" data-name="Trazado 71" class="cls-2" d="M11.85,3.83a.33.33,0,0,0-.24-.24c-.67,0-1.34,0-2,0v2.3h2.29C11.87,5.18,11.87,4.51,11.85,3.83Z"/><path id="Trazado_72" data-name="Trazado 72" class="cls-2" d="M8.25,3.6H6V5.88H8.25Z"/><path id="Trazado_73" data-name="Trazado 73" class="cls-2" d="M2.43,9.43H4.71V7.18H2.43Z"/><path id="Trazado_74" data-name="Trazado 74" class="cls-2" d="M11.83,7.19H9.56V9.45h2.27Z"/><path id="Trazado_75" data-name="Trazado 75" class="cls-2" d="M2.42,12.81c0,.08.17.21.27.22.66,0,1.32,0,2,0V10.75H2.41C2.41,11.44,2.4,12.12,2.42,12.81Z"/><path id="Trazado_76" data-name="Trazado 76" class="cls-2" d="M9.57,13h2.26V10.74H9.57Z"/><path id="Trazado_77" data-name="Trazado 77" class="cls-2" d="M6,9.45H8.26V7.19H6Z"/><path id="Trazado_78" data-name="Trazado 78" class="cls-2" d="M8.26,10.75H6V13H8.26Z"/></g></g></svg>