<svg id="Capa_1" data-name="Capa 1" xmlns="http://www.w3.org/2000/svg" viewBox="0 0 21.81 17"><defs><style>.cls-1{fill:#2756b1;}</style></defs><path id="Trazado_111" data-name="Trazado 111" class="cls-1" d="M11.3,8.72A4.91,4.91,0,0,0,13,5,5,5,0,0,0,3,5,4.91,4.91,0,0,0,4.7,8.72,8,8,0,0,0,0,16a1,1,0,0,0,2,0,6,6,0,0,1,12,0,1,1,0,0,0,2,0A8,8,0,0,0,11.3,8.72ZM8,8a3,3,0,1,1,3-3A3,3,0,0,1,8,8Zm9.74.32A5,5,0,0,0,14,0a1,1,0,0,0,0,2,3,3,0,0,1,1.5,5.59A1,1,0,0,0,15.14,9a1,1,0,0,0,.31.33l.39.26.13.07A7,7,0,0,1,20,16a1,1,0,0,0,2,0A9,9,0,0,0,17.74,8.32Z"/></svg>