<svg id="Capa_1" data-name="Capa 1" xmlns="http://www.w3.org/2000/svg" viewBox="0 0 23.69 14.85"><defs><style>.cls-1{fill:#6a7379;}</style></defs><g id="Grupo_52" data-name="Grupo 52"><path id="Trazado_106" data-name="Trazado 106" class="cls-1" d="M23.69,6.84A13.68,13.68,0,0,0,0,6.84,1.15,1.15,0,0,0,0,8a13.66,13.66,0,0,0,18.67,5,13.58,13.58,0,0,0,5-5A1.2,1.2,0,0,0,23.69,6.84ZM11.84,12.52a11.36,11.36,0,0,1-9.47-5.1A11.35,11.35,0,0,1,18.09,4.2a11.52,11.52,0,0,1,3.23,3.22A11.41,11.41,0,0,1,11.84,12.52Z"/><path id="Trazado_107" data-name="Trazado 107" class="cls-1" d="M11.84,3.12a4.3,4.3,0,1,0,4.3,4.3,4.31,4.31,0,0,0-4.3-4.3Zm0,6.28a2,2,0,1,1,2-2h0A2,2,0,0,1,11.84,9.4Z"/></g></svg>