<svg id="Capa_1" data-name="Capa 1" xmlns="http://www.w3.org/2000/svg" viewBox="0 0 23.17 23.98"><defs><style>.cls-1{fill:#fff;}</style></defs><g id="Grupo_137" data-name="Grupo 137"><path id="Trazado_232" data-name="Trazado 232" class="cls-1" d="M22.76,3.37,19,.26a1.21,1.21,0,0,0-1.55,1.87L21.2,5.24a1.22,1.22,0,0,0,1.56-1.87ZM2,5.24,5.76,2.13A1.22,1.22,0,0,0,5.9.42,1.23,1.23,0,0,0,4.22.26L.49,3.37A1.22,1.22,0,0,0,.34,5.08h0A1.2,1.2,0,0,0,2,5.25Zm9.58-3.1A10.92,10.92,0,1,0,22.54,13.06,10.92,10.92,0,0,0,11.62,2.14Zm0,19.41a8.49,8.49,0,1,1,8.5-8.49h0A8.5,8.5,0,0,1,11.62,21.55Zm3.64-9.7H12.84V9.42a1.22,1.22,0,0,0-2.43,0h0v2.43H8a1.22,1.22,0,0,0,0,2.43h2.43V16.7a1.22,1.22,0,1,0,2.43,0V14.28h2.42a1.22,1.22,0,1,0,0-2.43Z"/></g></svg>