<svg id="Capa_1" data-name="Capa 1" xmlns="http://www.w3.org/2000/svg" viewBox="0 0 28.5 28.5"><defs><style>.cls-1{fill:#6a7379;}</style></defs><path id="Trazado_116" data-name="Trazado 116" class="cls-1" d="M23.75,0h-19A4.75,4.75,0,0,0,0,4.75v19A4.75,4.75,0,0,0,4.75,28.5h19a4.75,4.75,0,0,0,4.75-4.75h0v-19A4.75,4.75,0,0,0,23.75,0ZM18.54,16.29a1.59,1.59,0,1,1-2.2,2.3l-.05-.05-2-2.06-2,2.06a1.59,1.59,0,1,1-2.3-2.2l.05-.05,2.06-2-2.06-2A1.59,1.59,0,0,1,12.21,10l2,2.06,2-2.06a1.59,1.59,0,0,1,2.25,2.25l-2.06,2Z"/></svg>