<svg id="Capa_1" data-name="Capa 1" xmlns="http://www.w3.org/2000/svg" viewBox="0 0 33.77 33.64"><defs><style>.cls-1{fill:#6a7379;}</style></defs><g id="Layer_1" data-name="Layer 1"><path id="Trazado_40" data-name="Trazado 40" class="cls-1" d="M28.38.06A.47.47,0,0,1,28.23,0H5.55c-.5.13-1,.22-1.49.39A6.06,6.06,0,0,0,0,6.08q0,10.71,0,21.4a6.12,6.12,0,0,0,6.08,6.16H27.46a6.17,6.17,0,0,0,6.24-5.22,2.17,2.17,0,0,1,.07-.24V5.56a10.81,10.81,0,0,0-.38-1.46A6.06,6.06,0,0,0,28.38.06Zm-11.57,5a5.73,5.73,0,1,1-5.72,5.74,5.73,5.73,0,0,1,5.72-5.74Zm9.11,21.8a2.55,2.55,0,0,1-2.4,2.34c-.75,0-1.49,0-2.24,0H10.44a2.56,2.56,0,0,1-2.68-2,9.83,9.83,0,0,1-.09-2.3,5.78,5.78,0,0,1,5.15-5.56l.62,0c2.35,0,4.7,0,7,0a5.72,5.72,0,0,1,5.41,5.1,14.21,14.21,0,0,1,0,2.44Z"/></g></svg>