<svg id="Capa_1" data-name="Capa 1" xmlns="http://www.w3.org/2000/svg" viewBox="0 0 20.67 20.67"><defs><style>.cls-1{fill:#fff;}</style></defs><path id="Trazado_131" data-name="Trazado 131" class="cls-1" d="M10.33,2.45A2.72,2.72,0,1,1,7.62,5.17a2.72,2.72,0,0,1,2.71-2.72h0m0,11.63c3.85,0,7.88,1.88,7.88,2.71v1.42H2.45V16.79c0-.83,4-2.71,7.88-2.71M10.33,0A5.17,5.17,0,1,0,15.5,5.17h0A5.16,5.16,0,0,0,10.34,0Zm0,11.63C6.89,11.63,0,13.35,0,16.79v3.88H20.67V16.79C20.67,13.35,13.78,11.63,10.33,11.63Z"/></svg>