<svg id="Capa_1" data-name="Capa 1" xmlns="http://www.w3.org/2000/svg" viewBox="0 0 26.4 26.39"><defs><style>.cls-1{fill:#fff;}</style></defs><path id="Trazado_121" data-name="Trazado 121" class="cls-1" d="M24.81,19.15l-4.49-4.51a18.21,18.21,0,0,1,2.36,1A4,4,0,0,1,24.81,19.15Zm1.59,5.36-1.88,1.88L21,22.92H3.48V19.21a4,4,0,0,1,2.15-3.54,18.94,18.94,0,0,1,6.22-1.94L0,1.88,1.88,0Zm-8-4.26-4-4h-.23A16.26,16.26,0,0,0,6.84,18a1.3,1.3,0,0,0-.69,1.17v1Zm-4.23-16a2.66,2.66,0,0,1,.94,5.16l2,2A5.33,5.33,0,1,0,9.68,4l2,2a2.66,2.66,0,0,1,2.5-1.74Z"/></svg>