<svg id="Capa_1" data-name="Capa 1" xmlns="http://www.w3.org/2000/svg" viewBox="0 0 80 80"><defs><style>.cls-1{fill:#54a583;}.cls-2{fill:#fff;}</style></defs><path id="Trazado_108" data-name="Trazado 108" class="cls-1" d="M0,67.06H0A12.94,12.94,0,0,0,12.94,80H67.06A12.94,12.94,0,0,0,80,67.06h0V12.94A12.94,12.94,0,0,0,67.06,0h0A67.06,67.06,0,0,0,0,67.06Z"/><path id="Trazado_110" data-name="Trazado 110" class="cls-2" d="M43.76,45.42a12.12,12.12,0,0,0,4.18-9.14,12.29,12.29,0,0,0-24.57-.22v.22a12.05,12.05,0,0,0,4.18,9.14A19.64,19.64,0,0,0,16,63.3a2.46,2.46,0,1,0,4.91.1v-.1a14.74,14.74,0,0,1,29.48,0h0a2.46,2.46,0,0,0,4.91,0A19.63,19.63,0,0,0,43.76,45.42Zm-8.11-1.77A7.37,7.37,0,1,1,43,36.28h0A7.37,7.37,0,0,1,35.65,43.65Zm23.93.79A12.29,12.29,0,0,0,50.39,24a2.46,2.46,0,1,0-.1,4.91h.1a7.36,7.36,0,0,1,3.69,13.73A2.46,2.46,0,0,0,53.17,46a2.48,2.48,0,0,0,.78.83l1,.64.32.17A17.21,17.21,0,0,1,65.06,63.3a2.46,2.46,0,0,0,4.91,0A22.1,22.1,0,0,0,59.58,44.44Z"/></svg>