<svg id="Capa_1" data-name="Capa 1" xmlns="http://www.w3.org/2000/svg" viewBox="0 0 19.2 19.2"><defs><style>.cls-1{fill:#2756b1;}</style></defs><g id="Layer_1" data-name="Layer 1"><path id="Trazado_103" data-name="Trazado 103" class="cls-1" d="M9.6,0a9.6,9.6,0,1,0,9.6,9.6h0A9.6,9.6,0,0,0,9.6,0Zm.9,3.47a1,1,0,0,1,1.2.89.88.88,0,0,1,0,.28,1.56,1.56,0,0,1-1.59,1.5H10c-.89,0-1.31-.44-1.28-1.18a1.59,1.59,0,0,1,1.68-1.48A.11.11,0,0,1,10.5,3.47ZM8.1,15.35c-.64,0-1.11-.39-.66-2.09l.73-3c.13-.48.15-.68,0-.68a4.86,4.86,0,0,0-1.51.66l-.32-.52a8.54,8.54,0,0,1,4.11-2.06c.64,0,.75.76.43,1.92L10,12.73c-.15.56-.08.76.06.76a3.27,3.27,0,0,0,1.44-.72l.36.49A6.73,6.73,0,0,1,8.1,15.35Z"/></g></svg>