<svg id="Capa_1" data-name="Capa 1" xmlns="http://www.w3.org/2000/svg" viewBox="0 0 80 80.02"><defs><style>.cls-1{fill:#50a583;}.cls-2{fill:#fff;}</style></defs><g id="Layer_1" data-name="Layer 1"><path id="Trazado_55" data-name="Trazado 55" class="cls-1" d="M0,67.08H0A12.94,12.94,0,0,0,12.94,80H67.06A12.94,12.94,0,0,0,80,67.08h0V13A12.94,12.94,0,0,0,67.06,0h0A67.06,67.06,0,0,0,0,67.08Z"/><path id="Trazado_60" data-name="Trazado 60" class="cls-2" d="M67.63,38.12A6.5,6.5,0,1,0,56.7,33.37a6.13,6.13,0,0,0,1.5,4.1A7.52,7.52,0,0,0,53.38,41l-1.76,2.8H47.25A4.55,4.55,0,0,0,44,45.16a4.55,4.55,0,0,0-3.26-1.37H36.37L34.61,41a8,8,0,0,0-4.82-3.52,6.47,6.47,0,1,0-11.52-4.1,6.31,6.31,0,0,0,2.08,4.75,7.7,7.7,0,0,0-4.36,7v13A3.92,3.92,0,0,0,19.9,62H29a3.92,3.92,0,0,0,3.91-3.91V52.9h7.81A4.55,4.55,0,0,0,44,51.53a4.55,4.55,0,0,0,3.26,1.37h7.81v5.21A3.92,3.92,0,0,0,59,62H68.1A3.93,3.93,0,0,0,72,58.11v-13A7.72,7.72,0,0,0,67.63,38.12ZM24.79,29.45a3.91,3.91,0,1,1-3.91,3.91h0A3.93,3.93,0,0,1,24.79,29.45Zm16,20.85h-8.4L28.7,44.44A1.42,1.42,0,0,0,26.88,44a1.28,1.28,0,0,0-.45,1.74l.05.08,3.84,6.25v6.06a1.3,1.3,0,0,1-1.3,1.3H19.9a1.3,1.3,0,0,1-1.3-1.3v-13a5.23,5.23,0,0,1,5.21-5.21H28a5.15,5.15,0,0,1,4.43,2.48l2.08,3.39a1.33,1.33,0,0,0,1.11.65h5.14a1.92,1.92,0,0,1,2,1.88v.07A2,2,0,0,1,40.74,50.3ZM63.21,29.45a3.91,3.91,0,1,1-3.91,3.91A3.89,3.89,0,0,1,63.21,29.45ZM69.4,58.11a1.3,1.3,0,0,1-1.3,1.3H59a1.3,1.3,0,0,1-1.3-1.3V52l3.84-6.25a1.28,1.28,0,1,0-2.2-1.31s0,0,0,0l-3.65,5.86h-8.4a2,2,0,0,1-2-2,1.91,1.91,0,0,1,1.88-2h5.15a1.36,1.36,0,0,0,1.11-.65l2.09-3.38A5.16,5.16,0,0,1,60,39.91h4.23a5.23,5.23,0,0,1,5.21,5.21v13Z"/></g></svg>